# Blender 5.0.1
# www.blender.org
o Cube
v -1.000000 0.000000 1.000000
v -1.000000 2.000000 1.000000
v -1.000000 0.000000 -1.000000
v -1.000000 2.000000 -1.000000
v 1.000000 0.000000 1.000000
v 1.000000 2.000000 1.000000
v 1.000000 0.000000 -1.000000
v 1.000000 2.000000 -1.000000
v -0.860364 4.306455 1.000000
v -0.860364 4.306455 -1.000000
v 0.981409 3.287094 -1.000000
v 0.981410 3.287094 1.000000
v 0.436587 6.403504 1.000000
v 0.436587 6.403504 -1.000000
v 1.767485 4.910618 -1.000000
v 1.767485 4.910618 1.000000
v 2.423824 7.580480 1.000000
v 2.423824 7.580480 -1.000000
v 3.390661 5.829701 -1.000000
v 3.390661 5.829701 1.000000
v 5.823228 7.463933 0.999999
v 5.823228 7.463933 -1.000000
v 5.753878 5.427419 -1.000001
v 5.753878 5.427419 0.999999
v 9.235496 5.030152 0.999999
v 9.235496 5.030152 -1.000001
v 8.349747 3.652222 -1.000001
v 8.349747 3.652222 0.999999
v 15.885220 5.775034 0.999999
v 15.885220 5.775034 -1.000001
v 16.750839 4.437394 -1.000002
v 16.750839 4.437394 0.999999
v 18.010077 7.396360 0.999999
v 18.010077 7.396360 -1.000001
v 19.301968 6.174022 -1.000001
v 19.301968 6.174022 0.999999
v 12.921544 2.623422 0.999998
v 12.711120 4.403061 0.999998
v 12.711120 4.403061 -1.000001
v 12.921544 2.623422 -1.000002
v 4.108395 7.749167 -1.000000
v 4.360439 5.900913 -1.000000
v 4.360439 5.900913 0.999999
v 4.108396 7.749167 1.000000
v 10.973308 4.618257 0.999998
v 10.749125 2.706596 -1.000002
v 10.749125 2.706596 0.999998
v 10.973308 4.618257 -1.000001
v 15.184198 3.220228 0.999998
v 14.381389 4.975567 -1.000001
v 14.381389 4.975567 0.999998
v 15.184198 3.220228 -1.000002
vn -1.0000 -0.0000 -0.0000
vn -0.0000 -0.0000 -1.0000
vn 1.0000 -0.0000 -0.0000
vn -0.0000 -0.0000 1.0000
vn -0.0000 -1.0000 -0.0000
vn 0.9001 -0.4358 -0.0000
vn 0.9999 0.0144 -0.0000
vn -0.9982 0.0604 -0.0000
vn -0.8505 0.5260 -0.0000
vn 0.4927 -0.8702 -0.0000
vn -0.5096 0.8604 -0.0000
vn -0.5645 -0.8254 -0.0000
vn -0.3217 -0.9468 -0.0000
vn 0.1641 0.9864 -0.0000
vn 0.5807 0.8141 -0.0000
vn 0.5627 -0.8266 -0.0000
vn 0.6135 -0.7897 -0.0000
vn -0.4694 0.8830 -0.0000
vn 0.6873 0.7264 -0.0000
vn -0.6066 0.7950 -0.0000
vn 0.1229 0.9924 -0.0000
vn -0.0383 -0.9993 -0.0000
vn -0.0996 0.9950 -0.0000
vn 0.0732 -0.9973 -0.0000
vn -0.3667 -0.9304 -0.0000
vn 0.2306 0.9730 -0.0000
vn -0.3242 0.9460 -0.0000
vn 0.2550 -0.9669 -0.0000
vt 0.375000 0.000000
vt 0.625000 0.000000
vt 0.625000 0.250000
vt 0.375000 0.250000
vt 0.625000 0.500000
vt 0.375000 0.500000
vt 0.625000 0.750000
vt 0.375000 0.750000
vt 0.625000 1.000000
vt 0.375000 1.000000
vt 0.125000 0.500000
vt 0.125000 0.750000
vt 0.875000 0.500000
vt 0.875000 0.750000
s 0
f 1/1/1 2/2/1 4/3/1 3/4/1
f 3/4/2 4/3/2 8/5/2 7/6/2
f 7/6/3 8/5/3 6/7/3 5/8/3
f 5/8/4 6/7/4 2/9/4 1/10/4
f 3/11/5 7/6/5 5/8/5 1/12/5
f 8/5/2 4/3/2 10/3/2 11/5/2
f 12/7/6 11/5/6 15/5/6 16/7/6
f 6/7/7 8/5/7 11/5/7 12/7/7
f 4/3/8 2/2/8 9/2/8 10/3/8
f 2/9/4 6/7/4 12/7/4 9/9/4
f 13/9/4 16/7/4 20/7/4 17/9/4
f 10/3/9 9/2/9 13/2/9 14/3/9
f 9/9/4 12/7/4 16/7/4 13/9/4
f 11/5/2 10/3/2 14/3/2 15/5/2
f 42/5/2 41/3/2 22/3/2 23/5/2
f 15/5/2 14/3/2 18/3/2 19/5/2
f 16/7/10 15/5/10 19/5/10 20/7/10
f 14/3/11 13/2/11 17/2/11 18/3/11
f 24/7/12 23/5/12 27/5/12 28/7/12
f 43/7/13 42/5/13 23/5/13 24/7/13
f 41/3/14 44/2/14 21/2/14 22/3/14
f 44/9/4 43/7/4 24/7/4 21/9/4
f 51/9/4 49/7/4 32/7/4 29/9/4
f 22/3/15 21/2/15 25/2/15 26/3/15
f 21/9/4 24/7/4 28/7/4 25/9/4
f 23/5/2 22/3/2 26/3/2 27/5/2
f 32/7/16 31/5/16 35/5/16 36/7/16
f 52/5/2 50/3/2 30/3/2 31/5/2
f 49/7/17 52/5/17 31/5/17 32/7/17
f 50/3/18 51/2/18 29/2/18 30/3/18
f 35/5/19 34/13/19 33/14/19 36/7/19
f 30/3/20 29/2/20 33/2/20 34/3/20
f 29/9/4 32/7/4 36/7/4 33/9/4
f 31/5/2 30/3/2 34/3/2 35/5/2
f 48/3/21 45/2/21 38/2/21 39/3/21
f 47/7/22 46/5/22 40/5/22 37/7/22
f 46/5/2 48/3/2 39/3/2 40/5/2
f 45/9/4 47/7/4 37/7/4 38/9/4
f 17/9/4 20/7/4 43/7/4 44/9/4
f 18/3/23 17/2/23 44/2/23 41/3/23
f 20/7/24 19/5/24 42/5/24 43/7/24
f 19/5/2 18/3/2 41/3/2 42/5/2
f 25/9/4 28/7/4 47/7/4 45/9/4
f 27/5/2 26/3/2 48/3/2 46/5/2
f 28/7/25 27/5/25 46/5/25 47/7/25
f 26/3/26 25/2/26 45/2/26 48/3/26
f 39/3/27 38/2/27 51/2/27 50/3/27
f 37/7/28 40/5/28 52/5/28 49/7/28
f 40/5/2 39/3/2 50/3/2 52/5/2
f 38/9/4 37/7/4 49/7/4 51/9/4
