# Blender 5.0.1
# www.blender.org
o ref
v 90.000000 -10.000000 10.000000
v 90.000000 10.000000 10.000000
v 90.000000 -10.000000 -10.000000
v 90.000000 10.000000 -10.000000
v 110.000000 -10.000000 10.000000
v 110.000000 10.000000 10.000000
v 110.000000 -10.000000 -10.000000
v 110.000000 10.000000 -10.000000
v 7.236073 85.527802 5.257253
v 0.000000 80.000000 0.000000
v 0.000000 -10.000000 -110.000000
v 0.000000 10.000000 -110.000000
v 1.950903 -10.000000 -109.807854
v 1.950903 10.000000 -109.807854
v 3.826835 -10.000000 -109.238800
v 3.826835 10.000000 -109.238800
v 5.555702 -10.000000 -108.314697
v 5.555702 10.000000 -108.314697
v 7.071068 -10.000000 -107.071068
v 7.071068 10.000000 -107.071068
v 8.314696 -10.000000 -105.555710
v 8.314696 10.000000 -105.555710
v 9.238795 -10.000000 -103.826836
v 9.238795 10.000000 -103.826836
v 9.807853 -10.000000 -101.950905
v 9.807853 10.000000 -101.950905
v 10.000000 -10.000000 -100.000000
v 10.000000 10.000000 -100.000000
v 9.807853 -10.000000 -98.049095
v 9.807853 10.000000 -98.049095
v 9.238795 -10.000000 -96.173164
v 9.238795 10.000000 -96.173164
v 8.314696 -10.000000 -94.444290
v 8.314696 10.000000 -94.444290
v 7.071068 -10.000000 -92.928932
v 7.071068 10.000000 -92.928932
v 5.555702 -10.000000 -91.685303
v 5.555702 10.000000 -91.685303
v 3.826835 -10.000000 -90.761200
v 3.826835 10.000000 -90.761200
v 1.950903 -10.000000 -90.192146
v 1.950903 10.000000 -90.192146
v 0.000000 -10.000000 -90.000000
v 0.000000 10.000000 -90.000000
v -1.950903 -10.000000 -90.192146
v -1.950903 10.000000 -90.192146
v -3.826835 -10.000000 -90.761200
v -3.826835 10.000000 -90.761200
v -5.555702 -10.000000 -91.685303
v -5.555702 10.000000 -91.685303
v -7.071068 -10.000000 -92.928932
v -7.071068 10.000000 -92.928932
v -8.314696 -10.000000 -94.444290
v -8.314696 10.000000 -94.444290
v -9.238795 -10.000000 -96.173164
v -9.238795 10.000000 -96.173164
v -9.807853 -10.000000 -98.049095
v -9.807853 10.000000 -98.049095
v -10.000000 -10.000000 -100.000000
v -10.000000 10.000000 -100.000000
v -9.807853 -10.000000 -101.950905
v -9.807853 10.000000 -101.950905
v -9.238795 -10.000000 -103.826836
v -9.238795 10.000000 -103.826836
v -8.314696 -10.000000 -105.555710
v -8.314696 10.000000 -105.555710
v -7.071068 -10.000000 -107.071068
v -7.071068 10.000000 -107.071068
v -5.555702 -10.000000 -108.314697
v -5.555702 10.000000 -108.314697
v -3.826835 -10.000000 -109.238800
v -3.826835 10.000000 -109.238800
v -1.950903 -10.000000 -109.807854
v -1.950903 10.000000 -109.807854
v -2.763880 85.527802 8.506493
v -8.944263 85.527840 0.000000
v -2.763880 85.527802 -8.506493
v 7.236073 85.527802 -5.257253
v 2.763880 94.472198 8.506493
v -7.236073 94.472198 5.257253
v -7.236073 94.472198 -5.257253
v 2.763880 94.472198 -8.506493
v 8.944263 94.472160 0.000000
v 0.000000 100.000000 0.000000
v 1.624556 98.506546 -4.999953
v -4.253227 98.506546 -3.090114
v -4.253227 98.506546 3.090114
v 5.257298 98.506516 0.000000
v 1.624556 98.506546 4.999953
v 6.881894 95.257355 -4.999969
v -2.628688 95.257378 -8.090117
v -8.506478 95.257355 0.000000
v -2.628688 95.257378 8.090117
v 6.881894 95.257355 4.999969
v 0.000000 90.000000 -9.999999
v 5.877856 90.000000 -8.090167
v -9.510578 90.000000 -3.090126
v -5.877856 90.000000 -8.090167
v -5.877856 90.000000 8.090167
v -9.510578 90.000000 3.090126
v 5.877856 90.000000 8.090167
v 0.000000 90.000000 9.999999
v 9.510578 90.000000 -3.090126
v 9.510578 90.000000 3.090126
v 2.628688 84.742622 -8.090117
v -6.881894 84.742645 -4.999969
v -1.624556 81.493454 -4.999953
v -6.881894 84.742645 4.999969
v -5.257298 81.493484 0.000000
v 4.253227 81.493454 -3.090114
v 8.506478 84.742645 0.000000
v 2.628688 84.742622 8.090117
v 4.253227 81.493454 3.090114
v -1.624556 81.493454 4.999953
v -4.491745 6.547609 -7.235393
v 4.258244 6.547609 -7.221614
v -5.117974 5.844484 -6.455128
v 4.882013 5.844484 -6.439380
v -5.588446 5.453859 -5.362117
v 5.349040 5.453859 -5.344893
v -3.634709 4.672609 -5.749666
v 3.396532 4.672609 -5.738594
v -3.633109 5.219484 -6.765289
v 3.398131 5.219484 -6.754218
v -3.632126 6.235109 -7.390289
v 3.399116 6.235109 -7.379216
v -2.850631 6.547609 -7.545309
v 2.618112 6.547609 -7.536697
v -2.148368 5.844484 -6.997327
v 1.914128 5.844484 -6.990930
v -1.681095 5.453859 -6.059091
v 1.443902 5.453859 -6.054169
v -0.899723 7.328859 -6.135984
v 0.662776 7.328859 -6.133524
v -1.523368 7.328859 -6.996343
v 1.289128 7.328859 -6.991914
v -2.538131 7.328859 -7.544817
v 2.305613 7.328859 -7.537189
v -2.850631 8.188234 -7.545309
v 2.618112 8.188234 -7.536697
v -2.148368 8.813234 -6.997327
v 1.914128 8.813234 -6.990930
v -1.681095 9.281984 -6.059091
v 1.443902 9.281984 -6.054169
v -3.634709 10.063234 -5.749666
v 3.396532 10.063234 -5.738594
v -3.633109 9.438234 -6.765289
v 3.398131 9.438234 -6.754218
v -3.632126 8.500734 -7.390289
v 3.399116 8.500734 -7.379216
v -4.491745 8.188234 -7.235393
v 4.258244 8.188234 -7.221614
v -5.117974 8.813234 -6.455128
v 4.882013 8.813234 -6.439380
v -5.588446 9.281984 -5.362117
v 5.349040 9.281984 -5.344893
v -6.369942 7.328859 -5.207098
v 6.130043 7.328859 -5.187413
v -5.743219 7.328859 -6.299863
v 5.506766 7.328859 -6.282146
v -4.804368 7.328859 -7.157760
v 4.570620 7.328859 -7.142996
v -4.882247 7.328859 -7.314134
v 4.648991 7.328859 -7.299123
v -4.569624 8.266359 -7.391765
v 4.336614 8.266359 -7.377741
v -3.631756 8.656984 -7.624663
v 3.399485 8.656984 -7.613591
v -2.772136 8.266359 -7.779560
v 2.540356 8.266359 -7.771194
v -2.381512 7.328859 -7.778945
v 2.149733 7.328859 -7.771810
v -2.772136 6.469484 -7.779560
v 2.540356 6.469484 -7.771194
v -3.631387 7.328859 -7.859039
v 3.399854 7.328859 -7.847966
v -3.631756 6.078859 -7.624663
v 3.399485 6.078859 -7.613591
v -4.569624 6.469484 -7.391765
v 4.336614 6.469484 -7.377741
v -0.117120 9.203859 -6.994129
v -0.115889 8.422609 -7.775378
v -0.117243 -1.889891 -6.916003
v -0.116505 1.703860 -7.384753
v -0.116259 3.031985 -7.541003
v -0.117489 -2.827391 -6.759754
v -0.119335 8.969484 -5.587880
v -0.119827 10.610109 -5.275381
v -0.137420 13.891359 5.896481
v -0.142218 10.531984 8.943353
v -0.141850 5.610109 8.708976
v -0.134344 1.078859 3.943358
v -2.151197 3.031985 -5.200455
v 1.911298 3.031985 -5.194057
v -3.244823 0.531984 -5.280302
v 3.005169 0.531984 -5.270459
v -3.635447 -2.046141 -5.280917
v 3.395794 -2.046141 -5.269844
v -3.792312 -3.999266 -4.890538
v 3.551429 -3.999266 -4.878974
v -3.401811 -4.546141 -4.811799
v 3.160681 -4.546141 -4.801464
v -1.916946 -4.780516 -5.121961
v 1.676800 -4.780516 -5.116302
v -0.119704 -4.936766 -5.353506
v -4.495436 3.500735 -4.891645
v 4.254553 3.500735 -4.877867
v -6.448436 4.516359 -4.972846
v 6.207798 4.516359 -4.952916
v -8.403035 6.391359 -4.038424
v 8.159445 6.391359 -4.012341
v -8.713198 9.203859 -5.523289
v 8.474281 9.203859 -5.496222
v -7.228332 9.750734 -5.833451
v 6.990401 9.750734 -5.811059
v -5.039850 10.922609 -6.455005
v 4.803888 10.922609 -6.439504
v -3.320364 12.485109 -6.921047
v 3.085878 12.485109 -6.910960
v -1.679372 12.094484 -7.152839
v 1.445624 12.094484 -7.147918
v -0.741996 9.828859 -7.073238
v 0.508003 9.828859 -7.071269
v -1.757251 9.047609 -7.309212
v 1.523995 9.047609 -7.304044
v -1.366750 7.953859 -7.230472
v 1.133247 7.953859 -7.226535
v -2.148368 5.844484 -6.997327
v 1.914128 5.844484 -6.990930
v -3.867730 5.063234 -6.609409
v 3.632261 5.063234 -6.597599
v -5.040096 5.531984 -6.298755
v 4.803641 5.531984 -6.283254
v -6.368588 6.781984 -6.066472
v 6.131395 6.781984 -6.046787
v -6.524839 7.875734 -6.066718
v 6.287645 7.875734 -6.046541
v -6.133968 8.656984 -6.222353
v 5.897267 8.656984 -6.203406
v -4.414359 9.281984 -6.766521
v 4.179380 9.281984 -6.752987
v -2.616870 9.594484 -7.154315
v 2.383123 9.594484 -7.146441
v -0.117243 -2.749266 -6.916003
v -1.210992 -2.280516 -6.917726
v 0.976506 -2.280516 -6.914281
v -1.289486 -3.452391 -6.683474
v 1.054261 -3.452391 -6.679784
v -0.742858 -3.921141 -6.526363
v 0.507141 -3.921141 -6.524395
v -0.117981 -3.999266 -6.447254
v -0.116997 2.953860 -7.072253
v -0.117120 3.500735 -6.994129
v -1.132744 3.422610 -6.995728
v 0.898504 3.422610 -6.992528
v -1.366996 2.641360 -7.074222
v 1.133002 2.641360 -7.070285
v -0.976494 2.016360 -6.995482
v 0.742254 2.016360 -6.992776
v -4.102597 4.438234 -6.297279
v 3.866143 4.438234 -6.284730
v -6.290832 5.453859 -5.831975
v 6.052902 5.453859 -5.812535
v -7.384951 6.938234 -5.599322
v 7.146281 6.938234 -5.576438
v -7.540339 8.656984 -6.146442
v 7.303392 8.656984 -6.123066
v -6.992358 9.047609 -6.848705
v 6.757625 9.047609 -6.827051
v -4.491253 10.375734 -7.547893
v 4.258737 10.375734 -7.534114
v -3.240640 11.313234 -7.936548
v 3.009352 11.313234 -7.926707
v -2.146645 11.078859 -8.091076
v 1.915849 11.078859 -8.084679
v -1.131145 9.203859 -8.011352
v 0.900103 9.203859 -8.008153
v -1.366011 3.891360 -7.699221
v 1.133985 3.891360 -7.695284
v -2.226985 0.453859 -6.684951
v 1.991760 0.453859 -6.678308
v -2.617978 -2.124266 -6.451191
v 2.382015 -2.124266 -6.443317
v -2.774597 -3.296141 -6.217062
v 2.537896 -3.296141 -6.208696
v -2.462590 -4.233641 -5.904070
v 2.224905 -4.233641 -5.896689
v -1.759466 -4.389891 -5.902964
v 1.521781 -4.389891 -5.897797
v -0.118720 -4.546141 -5.978504
v -0.117366 5.375734 -6.837879
v -0.116751 7.016359 -7.228503
v -3.398366 9.672609 -6.999295
v 3.164126 9.672609 -6.988961
v -1.757620 6.313234 -7.074837
v 1.523626 6.313234 -7.069670
v -1.444997 7.016359 -7.152469
v 1.211250 7.016359 -7.148287
v -1.289117 -1.968016 -6.917849
v 1.054630 -1.968016 -6.914158
v -0.898246 0.453859 -7.073484
v 0.664252 0.453859 -7.071023
v -0.116997 0.453859 -7.072253
v -0.117120 1.625735 -6.994129
v -1.054003 2.172610 -7.386230
v 0.820994 2.172610 -7.383276
v -1.444382 2.641360 -7.543094
v 1.211864 2.641360 -7.538911
v -1.210253 3.578860 -7.386475
v 0.977244 3.578860 -7.383030
v -0.507129 3.656985 -7.385368
v 0.274120 3.656985 -7.384139
v -0.115767 2.875735 -7.853502
v -0.584762 3.422610 -7.697990
v 0.352737 3.422610 -7.696515
v -1.053512 3.344485 -7.698729
v 0.821487 3.344485 -7.695776
v -1.209516 2.641360 -7.855226
v 0.977981 2.641360 -7.851780
v -0.897384 2.406985 -7.620358
v 0.665113 2.406985 -7.617898
v -0.116136 2.016360 -7.619128
v -2.698195 1.781985 -5.123191
v 2.458049 1.781985 -5.115071
v -1.758236 2.485110 -6.684213
v 1.523011 2.485110 -6.679046
v -1.914485 1.781985 -6.684459
v 1.679260 1.781985 -6.678799
v -2.463820 2.406985 -5.122821
v 2.223675 2.406985 -5.115440
v -0.117981 -3.843016 -6.447254
v -0.586731 -3.764891 -6.447992
v 0.350768 -3.764891 -6.446516
v -1.055111 -3.296141 -6.683106
v 0.819887 -3.296141 -6.680153
v -1.054865 -2.514891 -6.839355
v 0.820133 -2.514891 -6.836402
v -0.118473 -2.905516 -6.134754
v -1.055849 -2.593016 -6.214355
v 0.819148 -2.593016 -6.211403
v -1.056219 -3.218016 -5.979981
v 0.818780 -3.218016 -5.977028
v -0.587592 -3.608641 -5.901118
v 0.349907 -3.608641 -5.899642
v -0.118843 -3.686766 -5.900380
v -1.835253 7.094484 -7.387460
v 1.602243 7.094484 -7.382047
v -1.991626 6.469484 -7.309581
v 1.758369 6.469484 -7.303675
v -3.476245 9.203859 -7.155668
v 3.242497 9.203859 -7.145089
v -2.851000 9.125734 -7.310934
v 2.617743 9.125734 -7.302322
v -4.335373 8.891359 -7.313272
v 4.102117 8.891359 -7.299984
v -5.742851 8.422609 -6.534237
v 5.507135 8.422609 -6.516521
v -5.977348 7.797609 -6.456481
v 5.741385 7.797609 -6.438026
v -5.899346 6.860109 -6.378234
v 5.663138 6.860109 -6.360025
v -4.883107 5.922609 -6.767258
v 4.648129 5.922609 -6.752249
v -3.867115 5.531984 -7.000033
v 3.632875 5.531984 -6.988223
v -2.382127 6.000734 -7.388321
v 2.149117 6.000734 -7.381185
v -1.913378 7.875734 -7.387583
v 1.680368 7.875734 -7.381924
v -2.225877 8.656984 -7.388075
v 1.992867 8.656984 -7.381431
v -2.460621 8.500734 -7.154069
v 2.226873 8.500734 -7.146687
v -2.069997 7.875734 -7.153454
v 1.836249 7.875734 -7.147303
v -2.538746 6.156984 -7.154192
v 2.304998 6.156984 -7.146564
v -3.867361 5.766359 -6.843784
v 3.632630 5.766359 -6.831973
v -4.727104 6.078859 -6.610763
v 4.491633 6.078859 -6.596245
v -5.586970 7.016359 -6.299617
v 5.350515 7.016359 -6.282392
v -5.665095 7.719484 -6.299740
v 5.428640 7.719484 -6.282269
v -5.430598 8.266359 -6.377496
v 5.194388 8.266359 -6.360764
v -4.257617 8.813234 -7.078774
v 4.023623 8.813234 -7.065733
v -2.929247 8.891359 -7.232932
v 2.695745 8.891359 -7.224074
v -3.476367 8.969484 -7.077543
v 3.242374 8.969484 -7.066963
v -2.148244 6.625734 -7.075452
v 1.914250 6.625734 -7.069055
v -2.070120 7.172609 -7.075329
v 1.836126 7.172609 -7.069178
v -1.212960 9.516359 -5.667727
v 0.974537 9.516359 -5.664283
v -2.072211 11.547609 -5.747206
v 1.834034 11.547609 -5.741055
v -3.478829 11.781984 -5.515046
v 3.239913 11.781984 -5.504465
v -4.963817 10.453859 -5.126759
v 4.723671 10.453859 -5.111503
v -6.917924 9.438234 -4.504835
v 6.675809 9.438234 -4.483428
v -8.090288 8.969484 -4.194180
v 7.847191 8.969484 -4.169083
v -7.857267 6.547609 -3.334437
v 7.611462 6.547609 -3.310078
v -6.137905 4.906984 -3.722356
v 5.893330 4.906984 -3.703409
v -4.496421 3.969485 -4.266647
v 4.253569 3.969485 -4.252867
v -0.124256 13.891359 -2.462884
v -0.130038 14.750734 1.208986
v -0.139389 2.953860 7.146479
v -0.125855 0.297609 -1.447260
v -0.121549 -4.858641 -4.181632
v -0.123395 -3.139891 -3.009758
v -0.123764 -0.796141 -2.775384
v -0.124379 0.063234 -2.384759
v -8.643560 7.250734 -0.132547
v 8.387669 7.250734 -0.105727
v -8.723285 8.110109 0.882953
v 8.464193 8.110109 0.910020
v -7.870064 7.563234 4.790552
v 7.598669 7.563234 4.814913
v -4.749250 9.281984 7.451720
v 4.469489 9.281984 7.466237
v -7.471442 4.438234 -0.286951
v 7.216040 4.438234 -0.263822
v -6.068884 3.656985 2.059010
v 5.806101 3.656985 2.077710
v -6.541817 4.828859 4.714519
v 6.270668 4.828859 4.734695
v -3.498637 5.453859 7.063064
v 3.220106 5.453859 7.073645
v -2.466157 1.391359 -3.638449
v 2.221337 1.391359 -3.631067
v -1.921621 0.766359 -2.153214
v 1.672125 0.766359 -2.147555
v -3.013401 -2.202391 -3.404935
v 2.767842 -2.202391 -3.395831
v -2.622654 -0.093016 -3.482445
v 2.377341 -0.093016 -3.474571
v -3.403780 -4.233641 -3.561800
v 3.158713 -4.233641 -3.551466
v -1.529274 -2.671141 -3.246348
v 1.283223 -2.671141 -3.241919
v -1.373147 -0.483641 -3.167977
v 1.126850 -0.483641 -3.164040
v -1.762541 -4.546141 -3.949841
v 1.518705 -4.546141 -3.944674
v -2.309539 2.094485 -3.872577
v 2.065456 2.094485 -3.865688
v -2.230798 2.641360 -4.263079
v 1.987946 2.641360 -4.256435
v -2.152181 3.188235 -4.575455
v 1.910314 3.188235 -4.569058
v -2.235596 1.000734 -1.216208
v 1.983148 1.000734 -1.209564
v -3.101737 1.781985 3.079309
v 2.835755 1.781985 3.088659
v -3.574793 3.422610 5.812941
v 3.300199 3.422610 5.823769
v -4.666081 13.578859 4.248721
v 4.396408 13.578859 4.262993
v -4.661160 14.203859 1.123726
v 4.401329 14.203859 1.137996
v -4.656362 13.422609 -1.923146
v 4.406128 13.422609 -1.908875
v -4.731411 10.141359 -3.876391
v 4.487328 10.141359 -3.861874
v -7.389133 8.969484 -2.943075
v 7.142098 8.969484 -2.920191
v -6.452497 9.438234 -2.394724
v 6.203738 9.438234 -2.374794
v -6.534189 11.938234 -0.129226
v 6.278296 11.938234 -0.109048
v -8.095579 10.531984 -0.834809
v 7.841899 10.531984 -0.809712
v -8.099393 11.078859 1.587062
v 7.838087 11.078859 1.612160
v -6.538126 12.406984 2.370771
v 6.274358 12.406984 2.390948
v -6.542064 11.703859 4.870768
v 6.270422 11.703859 4.890944
v -8.103207 10.297609 4.008933
v 7.834272 10.297609 4.034033
v -6.309902 8.188234 6.277385
v 6.033832 8.188234 6.296825
v -4.981164 5.141359 5.888853
v 4.706325 5.141359 5.904109
v -8.335121 8.188234 2.446067
v 8.071109 8.188234 2.471903
v -4.188966 3.188235 -1.063033
v 3.936024 3.188235 -1.050238
v -4.429000 2.953860 2.530343
v 4.164740 2.953860 2.543877
v -9.038736 8.969484 2.757459
v 8.773741 8.969484 2.785510
v -7.865142 3.500735 1.665556
v 7.603589 3.500735 1.689916
v -10.524587 3.891360 3.692621
v 10.256638 3.891360 3.725347
v -12.948057 5.453859 4.704430
v 12.676908 5.453859 4.744783
v -13.651060 8.110109 4.625198
v 13.380157 8.110109 4.667767
v -12.479186 9.985109 4.627043
v 12.208282 9.985109 4.665923
v -10.368093 9.672609 3.536616
v 10.100634 9.672609 3.568851
v -10.289597 9.047609 3.302365
v 10.022877 9.047609 3.334352
v -12.009945 9.281984 4.315282
v 11.740026 9.281984 4.352684
v -12.791440 7.797609 4.470301
v 12.521029 7.797609 4.510163
v -12.244567 5.688234 4.471162
v 11.974154 5.688234 4.509302
v -10.446095 4.516359 3.458367
v 10.178881 4.516359 3.490849
v -8.412138 4.203859 1.742820
v 8.150341 4.203859 1.768902
v -9.350992 8.500734 2.600717
v 9.086486 8.500734 2.629751
v -9.586473 7.953859 3.303472
v 9.319754 7.953859 3.333246
v -8.960243 4.672609 2.523207
v 8.695984 4.672609 2.551012
v -10.525202 4.906984 4.083244
v 10.256023 4.906984 4.115971
v -12.010805 5.844484 4.862156
v 11.739166 5.844484 4.899557
v -12.479557 7.406984 4.861418
v 12.207914 7.406984 4.900294
v -11.854434 8.500734 4.784278
v 11.583037 8.500734 4.821187
v -10.368832 8.344484 4.005365
v 10.099895 8.344484 4.037600
v -8.569621 7.797609 2.523822
v 8.305360 7.797609 2.550396
v -8.492479 6.625734 3.148945
v 8.226252 6.625734 3.175273
v -7.711229 5.844484 3.150175
v 7.445003 5.844484 3.174043
v -8.336229 5.766359 3.149191
v 8.070002 5.766359 3.175026
v -8.570604 5.063234 3.148822
v 8.304377 5.063234 3.175396
v -8.258104 4.750734 3.149313
v 7.991875 4.750734 3.174904
v -7.395533 4.906984 1.119419
v 7.135700 4.906984 1.142304
v -7.319006 4.672609 2.135167
v 7.055977 4.672609 2.157804
v -7.319252 5.297609 2.291416
v 7.055730 5.297609 2.314054
v -8.100869 6.938234 2.524561
v 7.836610 6.938234 2.549658
v -9.039230 7.328859 3.069958
v 8.773249 7.328859 3.098008
v -9.040091 7.250734 3.616833
v 8.772388 7.250734 3.644884
v -8.258842 4.750734 3.618062
v 7.991138 4.750734 3.643654
v -8.649468 5.063234 3.617447
v 8.381763 5.063234 3.644269
v -8.415093 5.688234 3.617817
v 8.147387 5.688234 3.643900
v -7.790092 5.844484 3.618800
v 7.522389 5.844484 3.642917
v -8.571342 6.625734 3.617571
v 8.303637 6.625734 3.644144
v -10.525941 8.188234 4.551994
v 10.255284 8.188234 4.584721
v -12.011420 8.344484 5.252781
v 11.738550 8.344484 5.290183
v -12.714668 7.328859 5.329799
v 12.441551 7.328859 5.369413
v -12.245795 5.766359 5.252411
v 11.972925 5.766359 5.290552
v -10.604190 4.906984 4.629994
v 10.333286 4.906984 4.662969
v -8.961105 4.750734 3.070081
v 8.695124 4.750734 3.097887
v -9.665462 7.797609 3.850223
v 9.397017 7.797609 3.880243
v -9.040215 6.000734 3.694958
v 8.772264 6.000734 3.723009
v -9.509088 5.531984 3.772345
v 9.240891 5.531984 3.801870
v -10.134579 6.156984 4.083860
v 9.865397 6.156984 4.115355
v -9.743708 6.625734 3.928225
v 9.475019 6.625734 3.958490
v -10.290951 7.250734 4.161739
v 10.021524 7.250734 4.193726
v -10.681700 6.781984 4.239248
v 10.412027 6.781984 4.272467
v -11.228695 7.016359 4.316512
v 10.958777 7.016359 4.351454
v -10.994322 7.641359 4.316881
v 10.724403 7.641359 4.351086
v -10.370798 9.281984 5.255364
v 10.097927 9.281984 5.287598
v -12.637403 9.594484 5.876797
v 12.362566 9.594484 5.916166
v -13.808540 7.875734 5.406200
v 13.535177 7.875734 5.449263
v -13.262158 5.453859 5.719563
v 12.987809 5.453859 5.760900
v -10.527169 4.047609 5.333242
v 10.254054 4.047609 5.365971
v -8.024591 3.656985 3.696558
v 7.756639 3.656985 3.721409
v -8.728576 8.735109 4.242324
v 8.458903 8.735109 4.269391
vn -1.0000 -0.0000 -0.0000
vn -0.0000 -0.0000 -1.0000
vn 1.0000 -0.0000 -0.0000
vn -0.0000 -0.0000 1.0000
vn -0.0000 -1.0000 -0.0000
vn -0.0000 1.0000 -0.0000
vn -0.5346 0.3304 -0.7779
vn -0.4911 -0.7947 -0.3568
vn 0.0980 -0.0000 -0.9952
vn 0.8897 0.3304 -0.3151
vn -0.4089 -0.6617 -0.6284
vn 0.2903 -0.0000 -0.9569
vn -0.0247 0.3304 -0.9435
vn -0.4089 -0.6617 0.6284
vn 0.4714 -0.0000 -0.8819
vn -0.9050 0.3304 0.2680
vn -0.4911 -0.7947 0.3568
vn 0.6344 -0.0000 -0.7730
vn -0.9822 0.1876 -0.0000
vn -0.7240 -0.6617 0.1947
vn 0.7730 -0.0000 -0.6344
vn -0.9050 0.3304 -0.2680
vn 0.3313 -0.9435 -0.0000
vn 0.8819 -0.0000 -0.4714
vn -0.0247 0.3304 0.9435
vn 0.6071 -0.7947 -0.0000
vn 0.9569 -0.0000 -0.2903
vn -0.3035 0.1876 0.9342
vn 0.7002 -0.6617 -0.2680
vn 0.9952 -0.0000 -0.0980
vn -0.5346 0.3304 0.7779
vn 0.4713 -0.6617 0.5831
vn 0.9952 -0.0000 0.0980
vn 0.8897 0.3304 0.3151
vn 0.1876 -0.7947 0.5773
vn 0.9569 -0.0000 0.2903
vn 0.7947 0.1876 0.5773
vn -0.0385 -0.6617 0.7488
vn 0.8819 -0.0000 0.4714
vn 0.5746 0.3304 0.7488
vn 0.7240 0.6617 -0.1947
vn 0.7730 -0.0000 0.6344
vn 0.0247 -0.3304 -0.9435
vn 0.0385 0.6617 -0.7488
vn 0.6344 -0.0000 0.7730
vn 0.3035 -0.1876 -0.9342
vn -0.7002 0.6617 -0.2680
vn 0.4714 -0.0000 0.8819
vn 0.3066 0.1256 -0.9435
vn -0.4713 0.6617 0.5831
vn 0.2903 -0.0000 0.9569
vn -0.8897 -0.3304 -0.3151
vn 0.4089 0.6617 0.6284
vn 0.0980 -0.0000 0.9952
vn -0.7947 -0.1876 -0.5773
vn 0.8026 -0.1256 -0.5831
vn -0.0980 -0.0000 0.9952
vn -0.8026 0.1256 -0.5831
vn -0.3066 -0.1256 -0.9435
vn -0.2903 -0.0000 0.9569
vn -0.5746 -0.3304 0.7488
vn -0.9921 -0.1256 -0.0000
vn -0.4714 -0.0000 0.8819
vn -0.7947 -0.1876 0.5773
vn -0.3066 -0.1256 0.9435
vn -0.6344 -0.0000 0.7730
vn -0.8026 0.1256 0.5831
vn 0.8026 -0.1256 0.5831
vn -0.7730 -0.0000 0.6344
vn 0.5346 -0.3304 0.7779
vn 0.5346 -0.3304 -0.7779
vn -0.8819 -0.0000 0.4714
vn 0.3035 -0.1876 0.9342
vn -0.5746 -0.3304 -0.7488
vn -0.9569 -0.0000 0.2903
vn 0.3066 0.1256 0.9435
vn -0.8897 -0.3304 0.3151
vn -0.9952 -0.0000 0.0980
vn 0.9050 -0.3304 -0.2680
vn 0.0247 -0.3304 0.9435
vn -0.9952 -0.0000 -0.0980
vn 0.9822 -0.1876 -0.0000
vn 0.9050 -0.3304 0.2680
vn -0.9569 -0.0000 -0.2903
vn 0.9921 0.1256 -0.0000
vn 0.1024 -0.9435 -0.3151
vn -0.8819 -0.0000 -0.4714
vn -0.0385 -0.6617 -0.7488
vn -0.2680 -0.9435 -0.1947
vn -0.7730 -0.0000 -0.6344
vn 0.1876 -0.7947 -0.5773
vn -0.2680 -0.9435 0.1947
vn -0.6344 -0.0000 -0.7730
vn 0.4713 -0.6617 -0.5831
vn 0.7002 -0.6617 0.2680
vn -0.4714 -0.0000 -0.8819
vn 0.1024 -0.9435 0.3151
vn -0.2903 -0.0000 -0.9569
vn -0.3035 0.1876 -0.9342
vn -0.7240 -0.6617 -0.1947
vn -0.0980 -0.0000 -0.9952
vn 0.7947 0.1876 -0.5773
vn 0.5746 0.3304 -0.7488
vn 0.2680 0.9435 0.1947
vn 0.4911 0.7947 0.3568
vn 0.7240 0.6617 0.1947
vn -0.1024 0.9435 0.3151
vn -0.1876 0.7947 0.5773
vn 0.0385 0.6617 0.7488
vn -0.3313 0.9435 -0.0000
vn -0.6071 0.7947 -0.0000
vn -0.7002 0.6617 0.2680
vn -0.1024 0.9435 -0.3151
vn -0.1876 0.7947 -0.5773
vn -0.4713 0.6617 -0.5831
vn 0.2680 0.9435 -0.1947
vn 0.4911 0.7947 -0.3568
vn 0.4089 0.6617 -0.6284
vn -0.6639 -0.2008 -0.7204
vn 0.6661 -0.2008 -0.7183
vn -0.8287 -0.3036 -0.4702
vn 0.8302 -0.3036 -0.4676
vn -0.4148 -0.7933 -0.4456
vn 0.4162 -0.7933 -0.4443
vn -0.3587 -0.5089 -0.7825
vn 0.3612 -0.5089 -0.7814
vn 0.0800 -0.5394 -0.8382
vn -0.0773 -0.5394 -0.8385
vn 0.2704 -0.8413 -0.4681
vn -0.2689 -0.8413 -0.4690
vn 0.7715 -0.3352 -0.5408
vn -0.7698 -0.3352 -0.5432
vn 0.4703 -0.1940 -0.8609
vn -0.4676 -0.1940 -0.8624
vn 0.4781 0.1907 -0.8574
vn -0.4754 0.1907 -0.8589
vn 0.7681 0.3264 -0.5509
vn -0.7663 0.3264 -0.5533
vn 0.2527 0.8173 -0.5178
vn -0.2511 0.8173 -0.5186
vn 0.0962 0.5696 -0.8163
vn -0.0936 0.5696 -0.8166
vn -0.3655 0.5370 -0.7603
vn 0.3679 0.5370 -0.7591
vn -0.4133 0.7672 -0.4905
vn 0.4148 0.7672 -0.4892
vn -0.8270 0.2952 -0.4784
vn 0.8285 0.2952 -0.4758
vn -0.6702 0.1971 -0.7155
vn 0.6725 0.1971 -0.7134
vn -0.8119 0.3244 0.4854
vn 0.8103 0.3244 0.4879
vn -0.2060 0.8206 0.5331
vn 0.2043 0.8206 0.5337
vn 0.4216 0.7806 0.4614
vn -0.4230 0.7806 0.4600
vn 0.8233 0.3225 0.4671
vn -0.8248 0.3225 0.4645
vn 0.8130 -0.3487 0.4663
vn -0.8145 -0.3487 0.4637
vn 0.4216 -0.7806 0.4614
vn -0.4230 -0.7806 0.4600
vn -0.2060 -0.8206 0.5331
vn 0.2043 -0.8206 0.5337
vn -0.8002 -0.3510 0.4862
vn 0.7987 -0.3510 0.4887
vn -0.3986 -0.0623 -0.9150
vn 0.4015 -0.0623 -0.9137
vn -0.3055 -0.1754 -0.9359
vn 0.3084 -0.1754 -0.9349
vn -0.0930 -0.1835 -0.9786
vn 0.0961 -0.1835 -0.9783
vn 0.0639 -0.0283 -0.9976
vn -0.0608 -0.0283 -0.9977
vn 0.0639 0.0260 -0.9976
vn -0.0608 0.0260 -0.9978
vn -0.0980 0.1729 -0.9800
vn 0.1011 0.1729 -0.9797
vn -0.3021 0.1656 -0.9388
vn 0.3050 0.1656 -0.9378
vn -0.3987 0.0572 -0.9153
vn 0.4016 0.0572 -0.9140
vn -0.1223 -0.8616 -0.4926
vn 0.1239 -0.8616 -0.4922
vn -0.2183 -0.8647 -0.4524
vn 0.2197 -0.8647 -0.4517
vn -0.5891 -0.4550 -0.6677
vn 0.5912 -0.4550 -0.6659
vn -0.7679 -0.0506 -0.6386
vn 0.7699 -0.0506 -0.6362
vn -0.7787 0.0900 -0.6209
vn 0.7806 0.0900 -0.6185
vn -0.3234 -0.8188 -0.4744
vn 0.3249 -0.8188 -0.4734
vn -0.3847 -0.6629 -0.6423
vn 0.3867 -0.6629 -0.6411
vn -0.6885 -0.4193 -0.5917
vn 0.6904 -0.4193 -0.5895
vn -0.6577 -0.3634 -0.6598
vn 0.6598 -0.3634 -0.6577
vn -0.5454 0.3707 -0.7518
vn 0.5477 0.3707 -0.7500
vn -0.5055 0.6464 -0.5714
vn 0.5073 0.6464 -0.5698
vn -0.6083 0.5167 -0.6025
vn 0.6102 0.5167 -0.6006
vn 0.0452 0.6610 -0.7490
vn -0.0429 0.6610 -0.7492
vn 0.7256 0.3187 -0.6099
vn -0.7237 0.3187 -0.6122
vn 0.5890 0.5554 -0.5871
vn -0.5871 0.5554 -0.5890
vn -0.5349 -0.3909 -0.7491
vn 0.5372 -0.3909 -0.7474
vn -0.2193 -0.4690 -0.8555
vn 0.2220 -0.4690 -0.8548
vn 0.0807 -0.5321 -0.8428
vn -0.0781 -0.5321 -0.8431
vn 0.0836 -0.6575 -0.7488
vn -0.0813 -0.6575 -0.7491
vn -0.0444 -0.5667 -0.8227
vn 0.0470 -0.5667 -0.8226
vn -0.2770 -0.2130 -0.9370
vn 0.2799 -0.2130 -0.9361
vn -0.3799 -0.1824 -0.9069
vn 0.3827 -0.1824 -0.9057
vn -0.3343 -0.2878 -0.8974
vn 0.3372 -0.2878 -0.8964
vn -0.3748 0.0603 -0.9252
vn 0.3777 0.0603 -0.9240
vn 0.1367 0.2680 -0.9537
vn -0.1337 0.2680 -0.9541
vn -0.3948 -0.4321 -0.8108
vn 0.3974 -0.4321 -0.8096
vn -0.1841 -0.2474 -0.9513
vn 0.1871 -0.2474 -0.9507
vn -0.0084 -0.1948 -0.9808
vn 0.0115 -0.1948 -0.9808
vn -0.0709 -0.6966 -0.7139
vn 0.0732 -0.6966 -0.7137
vn -0.1851 -0.5723 -0.7989
vn 0.1876 -0.5723 -0.7983
vn -0.3143 -0.2708 -0.9099
vn 0.3171 -0.2708 -0.9089
vn -0.3048 -0.0265 -0.9520
vn 0.3078 -0.0265 -0.9511
vn -0.3251 -0.1306 -0.9366
vn 0.3280 -0.1306 -0.9356
vn 0.0152 0.0574 -0.9982
vn -0.0121 0.0574 -0.9983
vn 0.0042 -0.0656 -0.9978
vn -0.0011 -0.0656 -0.9978
vn 0.0016 -0.0000 -1.0000
vn -0.8175 -0.5744 0.0429
vn 0.8173 -0.5744 0.0455
vn -0.9497 0.2297 0.2129
vn 0.9490 0.2297 0.2159
vn -0.0831 0.9073 0.4123
vn 0.0818 0.9073 0.4125
vn 0.8841 0.3555 -0.3033
vn -0.8831 0.3555 -0.3061
vn -0.4204 -0.8797 -0.2225
vn 0.4211 -0.8797 -0.2212
vn -0.2861 -0.5747 -0.7667
vn 0.2886 -0.5747 -0.7658
vn 0.6549 0.6019 -0.4569
vn -0.6535 0.6019 -0.4590
vn -0.1043 0.7892 -0.6052
vn 0.1062 0.7892 -0.6049
vn -0.7573 0.2916 -0.5844
vn 0.7591 0.2916 -0.5820
vn -0.3880 -0.7130 -0.5840
vn 0.3898 -0.7130 -0.5828
vn -0.0447 0.2314 -0.9718
vn 0.0478 0.2314 -0.9717
vn -0.0320 -0.4018 -0.9152
vn 0.0349 -0.4018 -0.9151
vn 0.4465 -0.1610 -0.8802
vn -0.4438 -0.1610 -0.8816
vn 0.2196 -0.4364 -0.8725
vn -0.2168 -0.4364 -0.8732
vn -0.4327 -0.1290 -0.8923
vn 0.4355 -0.1290 -0.8909
vn -0.2993 0.0501 -0.9529
vn 0.3023 0.0501 -0.9519
vn -0.8115 0.3010 -0.5008
vn 0.8131 0.3010 -0.4983
vn -0.8747 0.2574 -0.4107
vn 0.8760 0.2574 -0.4080
vn -0.9380 0.1601 -0.3074
vn 0.9390 0.1601 -0.3045
vn -0.2226 -0.6539 -0.7231
vn 0.2248 -0.6539 -0.7224
vn 0.1551 -0.1997 -0.9675
vn -0.1521 -0.1997 -0.9680
vn 0.2748 -0.1025 -0.9560
vn -0.2718 -0.1025 -0.9569
vn 0.0991 0.1952 -0.9757
vn -0.0961 0.1952 -0.9761
vn 0.1587 0.9494 -0.2710
vn -0.1578 0.9494 -0.2715
vn 0.6936 0.7082 -0.1317
vn -0.6932 0.7082 -0.1339
vn 1.0000 -0.0000 0.0016
vn -1.0000 -0.0000 -0.0016
vn -0.3050 -0.9450 -0.1186
vn 0.3053 -0.9450 -0.1176
vn -0.0283 -0.2981 -0.9541
vn 0.0313 -0.2981 -0.9540
vn -0.1338 -0.3479 -0.9279
vn 0.1368 -0.3479 -0.9275
vn 0.5098 -0.2755 -0.8150
vn -0.5073 -0.2755 -0.8166
vn 0.3857 -0.0419 -0.9217
vn -0.3828 -0.0419 -0.9229
vn 0.2098 0.0374 -0.9770
vn -0.2067 0.0374 -0.9777
vn 0.5731 -0.4767 -0.6665
vn -0.5710 -0.4767 -0.6683
vn 0.1379 -0.7531 -0.6433
vn -0.1359 -0.7531 -0.6437
vn -0.4078 -0.6071 -0.6820
vn 0.4099 -0.6071 -0.6808
vn -0.5729 -0.4130 -0.7079
vn 0.5751 -0.4130 -0.7061
vn -0.5652 -0.0968 -0.8192
vn 0.5678 -0.0968 -0.8174
vn -0.5691 0.1180 -0.8138
vn 0.5716 0.1180 -0.8120
vn -0.4812 0.5621 -0.6726
vn 0.4833 0.5621 -0.6711
vn -0.2592 0.6114 -0.7477
vn 0.2616 0.6114 -0.7468
vn -0.1625 0.3607 -0.9184
vn 0.1654 0.3607 -0.9179
vn 0.0193 0.2495 -0.9682
vn -0.0163 0.2495 -0.9682
vn -0.3260 -0.4166 -0.8486
vn 0.3287 -0.4166 -0.8476
vn -0.2796 -0.2610 -0.9240
vn 0.2825 -0.2610 -0.9231
vn 0.2553 -0.6514 -0.7145
vn -0.2531 -0.6514 -0.7153
vn 0.0269 -0.8455 -0.5333
vn -0.0252 -0.8455 -0.5334
vn 0.3532 -0.2606 -0.8985
vn -0.3504 -0.2606 -0.8996
vn 0.3538 -0.0110 -0.9353
vn -0.3508 -0.0110 -0.9364
vn 0.1330 0.4608 -0.8775
vn -0.1303 0.4608 -0.8779
vn 0.0355 0.6159 -0.7870
vn -0.0330 0.6159 -0.7871
vn -0.3591 0.5836 -0.7283
vn 0.3614 0.5836 -0.7272
vn -0.4977 0.5300 -0.6866
vn 0.4999 0.5300 -0.6850
vn -0.6656 -0.3333 -0.6677
vn 0.6677 -0.3333 -0.6656
vn -0.8156 -0.0731 -0.5740
vn 0.8174 -0.0731 -0.5715
vn -0.7830 0.1161 -0.6110
vn 0.7850 0.1161 -0.6086
vn 0.5302 0.8111 0.2470
vn -0.5310 0.8111 0.2453
vn 0.8505 0.3695 0.3743
vn -0.8517 0.3695 0.3716
vn 0.2439 0.8675 0.4335
vn -0.2453 0.8675 0.4327
vn -0.5929 0.7465 0.3021
vn 0.5919 0.7465 0.3039
vn -0.3690 0.8758 0.3112
vn 0.3681 0.8758 0.3124
vn -0.2826 0.9151 0.2875
vn 0.2817 0.9151 0.2884
vn -0.8569 0.1340 0.4977
vn 0.8553 0.1340 0.5004
vn -0.5349 -0.7233 0.4367
vn 0.5335 -0.7233 0.4384
vn -0.3856 -0.8131 0.4362
vn 0.3842 -0.8131 0.4374
vn -0.2347 -0.5806 0.7796
vn 0.2323 -0.5806 0.7804
vn -0.2464 -0.0583 0.9674
vn 0.2433 -0.0583 0.9682
vn -0.1177 -0.4535 0.8835
vn 0.1149 -0.4535 0.8838
vn -0.1154 -0.9836 0.1386
vn 0.1150 -0.9836 0.1390
vn -0.1187 -0.9669 0.2258
vn 0.1180 -0.9669 0.2262
vn -0.9602 -0.0085 0.2793
vn 0.9593 -0.0085 0.2823
vn -0.9324 0.1629 0.3227
vn 0.9314 0.1629 0.3257
vn -0.1642 0.0207 0.9862
vn 0.1611 0.0207 0.9867
vn 0.0172 -0.2177 0.9759
vn -0.0203 -0.2177 0.9758
vn -0.7547 -0.2926 0.5872
vn 0.7528 -0.2926 0.5896
vn -0.9202 0.1379 0.3664
vn 0.9190 0.1379 0.3693
vn -0.9300 0.3127 0.1929
vn 0.9294 0.3127 0.1959
vn -0.9124 0.3376 0.2314
vn 0.9117 0.3376 0.2343
vn -0.9408 0.3338 0.0592
vn 0.9406 0.3338 0.0622
vn -0.1768 -0.8805 0.4399
vn 0.1754 -0.8805 0.4405
vn -0.3720 -0.4733 0.7985
vn 0.3695 -0.4733 0.7997
vn -0.3114 -0.8284 0.4655
vn 0.3099 -0.8284 0.4665
vn -0.2795 -0.9515 0.1283
vn 0.2791 -0.9515 0.1291
vn -0.3142 -0.9321 0.1802
vn 0.3136 -0.9321 0.1812
vn -0.9763 -0.2083 0.0593
vn 0.9761 -0.2083 0.0624
vn -0.8263 -0.5066 -0.2460
vn 0.8271 -0.5066 -0.2434
vn -0.3463 -0.1158 0.9309
vn 0.3434 -0.1158 0.9320
vn -0.1199 0.9644 -0.2357
vn 0.1206 0.9644 -0.2353
vn -0.1278 0.9744 0.1849
vn 0.1272 0.9744 0.1853
vn -0.3504 0.5947 0.7236
vn 0.3481 0.5947 0.7247
vn -0.4155 0.8981 0.1442
vn 0.4150 0.8981 0.1455
vn -0.1835 0.7036 -0.6865
vn 0.1856 0.7036 -0.6860
vn -0.6053 0.7794 -0.1618
vn 0.6058 0.7794 -0.1599
vn -0.7036 0.6806 0.2042
vn 0.7030 0.6806 0.2064
vn -0.6691 0.2007 0.7156
vn 0.6668 0.2007 0.7177
vn -0.4960 0.4342 0.7520
vn 0.4936 0.4342 0.7535
vn -0.6426 0.7459 0.1751
vn 0.6420 0.7459 0.1771
vn -0.7180 0.6788 -0.1541
vn 0.7185 0.6788 -0.1518
vn -0.7380 0.3972 -0.5455
vn 0.7397 0.3972 -0.5432
vn -0.3430 0.9261 0.1573
vn 0.3425 0.9261 0.1584
vn -0.2257 0.5740 -0.7871
vn 0.2282 0.5740 -0.7864
vn 0.1706 0.1046 0.9798
vn -0.1737 0.1046 0.9792
vn -0.0418 0.9150 -0.4014
vn 0.0431 0.9150 -0.4013
vn 0.1631 0.1847 -0.9692
vn -0.1600 0.1847 -0.9697
vn -0.9791 0.1973 -0.0499
vn 0.9792 0.1973 -0.0468
vn -0.9465 0.0918 -0.3094
vn 0.9475 0.0918 -0.3064
vn -0.9796 0.1905 0.0646
vn 0.9793 0.1905 0.0677
vn -0.9939 0.0312 0.1054
vn 0.9936 0.0312 0.1085
vn -0.7115 -0.7008 -0.0512
vn 0.7116 -0.7008 -0.0489
vn -0.3720 -0.9243 -0.0852
vn 0.3723 -0.9243 -0.0841
vn -0.4462 -0.8644 -0.2317
vn 0.4469 -0.8644 -0.2303
vn -0.6062 -0.7578 -0.2414
vn 0.6070 -0.7578 -0.2395
vn -0.7321 -0.6368 -0.2418
vn 0.7329 -0.6368 -0.2395
vn -0.2624 -0.4499 -0.8537
vn 0.2651 -0.4499 -0.8528
vn -0.5580 -0.3181 0.7665
vn 0.5556 -0.3181 0.7682
vn -0.5017 -0.2807 0.8182
vn 0.4991 -0.2807 0.8198
vn -0.3196 -0.8494 0.4200
vn 0.3183 -0.8494 0.4210
vn -0.7202 -0.6356 0.2782
vn 0.7193 -0.6356 0.2804
vn -0.4984 -0.4408 0.7465
vn 0.4960 -0.4408 0.7481
vn -0.3492 0.3807 -0.8562
vn 0.3519 0.3807 -0.8551
vn -0.4552 0.1715 -0.8737
vn 0.4579 0.1715 -0.8723
vn -0.2568 0.1055 -0.9607
vn 0.2598 0.1055 -0.9599
vn -0.2440 -0.0802 -0.9664
vn 0.2470 -0.0802 -0.9657
vn -0.4629 -0.0599 -0.8844
vn 0.4657 -0.0599 -0.8829
vn -0.6213 -0.3045 -0.7220
vn 0.6236 -0.3045 -0.7200
vn -0.4491 0.6590 -0.6034
vn 0.4510 0.6590 -0.6020
vn 0.2674 0.8309 -0.4880
vn -0.2659 0.8309 -0.4888
vn 0.8292 0.2291 -0.5098
vn -0.8276 0.2291 -0.5124
vn 0.5263 -0.3566 -0.7719
vn -0.5238 -0.3566 -0.7736
vn -0.4536 -0.5665 -0.6880
vn 0.4557 -0.5665 -0.6866
vn -0.6987 -0.4497 -0.5563
vn 0.7005 -0.4497 -0.5541
vn -0.7222 -0.6827 0.1115
vn 0.7218 -0.6827 0.1138
vn 0.1934 0.2860 -0.9385
vn -0.1904 0.2860 -0.9391
vn -0.9051 -0.3734 0.2033
vn 0.9045 -0.3734 0.2062
vn -0.1019 0.1551 -0.9826
vn 0.1050 0.1551 -0.9823
vn -0.0835 0.9318 -0.3532
vn 0.0846 0.9318 -0.3529
vn -0.6434 -0.0883 -0.7604
vn 0.6458 -0.0883 -0.7584
vn -0.4297 0.4740 -0.7685
vn 0.4321 0.4740 -0.7672
vn -0.8027 -0.4847 -0.3475
vn 0.8038 -0.4847 -0.3450
vn -0.5800 -0.4128 -0.7023
vn 0.5822 -0.4128 -0.7004
vn -0.5899 -0.4305 -0.6831
vn 0.5921 -0.4305 -0.6813
vn -0.9819 -0.1804 0.0576
vn 0.9817 -0.1804 0.0607
vn -0.9107 -0.3965 0.1160
vn 0.9103 -0.3965 0.1189
vn -0.9973 -0.0181 0.0710
vn 0.9971 -0.0181 0.0741
vn -0.7310 -0.6543 -0.1936
vn 0.7316 -0.6543 -0.1913
vn -0.7865 -0.6079 -0.1085
vn 0.7869 -0.6079 -0.1060
vn -0.7021 -0.7022 -0.1181
vn 0.7024 -0.7022 -0.1159
vn -0.1841 0.9816 0.0508
vn 0.1840 0.9816 0.0514
vn -0.9350 0.3301 -0.1298
vn 0.9354 0.3301 -0.1269
vn -0.6633 -0.7463 -0.0563
vn 0.6634 -0.7463 -0.0542
vn 0.0086 0.9970 -0.0767
vn -0.0084 0.9970 -0.0767
vn -0.6232 -0.7061 -0.3364
vn 0.6242 -0.7061 -0.3344
vn -0.2727 -0.8925 -0.3592
vn 0.2739 -0.8925 -0.3583
vn 0.8324 -0.5080 0.2213
vn -0.8331 -0.5080 0.2187
vn 0.8331 0.2377 0.4994
vn -0.8347 0.2377 0.4968
vn 0.5651 0.7847 0.2548
vn -0.5659 0.7847 0.2530
vn 0.0561 0.9962 -0.0671
vn -0.0559 0.9962 -0.0672
vn -0.1429 0.0222 -0.9895
vn 0.1461 0.0222 -0.9890
vn -0.3260 0.0645 -0.9432
vn 0.3289 0.0645 -0.9421
vn -0.3112 0.0232 -0.9501
vn 0.3142 0.0232 -0.9491
vn -0.1694 0.0274 -0.9852
vn 0.1725 0.0274 -0.9846
vn -0.3473 0.2849 -0.8935
vn 0.3501 0.2849 -0.8924
vn -0.3991 -0.0343 -0.9162
vn 0.4020 -0.0343 -0.9150
vn -0.2557 -0.0603 -0.9649
vn 0.2587 -0.0603 -0.9641
vn -0.0621 -0.0106 -0.9980
vn 0.0653 -0.0106 -0.9978
vn 0.3647 0.7039 -0.6095
vn -0.3627 0.7039 -0.6107
vn -0.6287 0.0355 -0.7769
vn 0.6311 0.0355 -0.7749
vn -0.4458 -0.2002 -0.8724
vn 0.4486 -0.2002 -0.8710
vn -0.5058 -0.2141 -0.8356
vn 0.5085 -0.2141 -0.8340
vn -0.5245 0.2619 -0.8101
vn 0.5271 0.2619 -0.8084
vn -0.2968 0.5802 -0.7584
vn 0.2992 0.5802 -0.7575
vn -0.0932 -0.9924 0.0804
vn 0.0929 -0.9924 0.0806
vn -0.5006 -0.8657 -0.0088
vn 0.5006 -0.8657 -0.0072
vn -0.9281 -0.2497 -0.2763
vn 0.9289 -0.2497 -0.2733
vn -0.8393 0.5424 0.0365
vn 0.8392 0.5424 0.0391
vn 0.2351 0.9367 0.2593
vn -0.2359 0.9367 0.2585
vn 0.4497 0.8838 0.1293
vn -0.4501 0.8838 0.1278
vn 0.5370 -0.0098 0.8435
vn -0.5397 -0.0098 0.8418
vn 0.1895 -0.0241 0.9816
vn -0.1926 -0.0241 0.9810
vn -0.4061 0.0266 0.9135
vn 0.4032 0.0266 0.9147
vn 0.7819 0.6231 -0.0184
vn -0.7818 0.6231 -0.0209
vn -0.5441 -0.2063 0.8133
vn 0.5415 -0.2063 0.8150
vn 0.2469 -0.9231 0.2949
vn -0.2479 -0.9231 0.2941
vt 0.375000 0.000000
vt 0.625000 0.000000
vt 0.625000 0.250000
vt 0.375000 0.250000
vt 0.625000 0.500000
vt 0.375000 0.500000
vt 0.625000 0.750000
vt 0.375000 0.750000
vt 0.625000 1.000000
vt 0.375000 1.000000
vt 0.125000 0.500000
vt 0.125000 0.750000
vt 0.875000 0.500000
vt 0.875000 0.750000
vt 0.681818 0.236191
vt 0.727273 0.314921
vt 0.636364 0.314921
vt 0.681818 0.078731
vt 0.772727 0.078731
vt 0.727273 0.157461
vt 1.000000 0.500000
vt 1.000000 1.000000
vt 0.968750 1.000000
vt 0.968750 0.500000
vt 0.409092 0.236191
vt 0.454546 0.314921
vt 0.363637 0.314921
vt 0.636364 0.157461
vt 0.937500 1.000000
vt 0.937500 0.500000
vt 0.590909 0.236191
vt 0.545455 0.314921
vt 0.954545 0.078731
vt 1.000000 0.157461
vt 0.909091 0.157461
vt 0.906250 1.000000
vt 0.906250 0.500000
vt 0.863636 0.236191
vt 0.909091 0.314921
vt 0.818182 0.314921
vt 0.863636 0.078731
vt 0.875000 1.000000
vt 0.772727 0.236191
vt 0.818182 0.157461
vt 0.843750 1.000000
vt 0.843750 0.500000
vt 0.318182 0.078731
vt 0.363637 0.000000
vt 0.409092 0.078731
vt 0.812500 1.000000
vt 0.812500 0.500000
vt 0.136365 0.236191
vt 0.181819 0.314921
vt 0.090910 0.314921
vt 0.363637 0.157461
vt 0.781250 1.000000
vt 0.781250 0.500000
vt 0.045455 0.236191
vt 0.454546 0.157461
vt 0.750000 1.000000
vt 0.750000 0.500000
vt 0.000000 0.314921
vt 0.227273 0.078731
vt 0.272728 0.157461
vt 0.181819 0.157461
vt 0.718750 1.000000
vt 0.718750 0.500000
vt 0.318182 0.236191
vt 0.272728 0.314921
vt 0.136365 0.078731
vt 0.687500 1.000000
vt 0.687500 0.500000
vt 0.227273 0.236191
vt 0.090910 0.157461
vt 0.656250 1.000000
vt 0.656250 0.500000
vt 0.409092 0.393651
vt 0.545455 0.157461
vt 0.590909 0.393651
vt 0.593750 1.000000
vt 0.593750 0.500000
vt 0.500000 0.236191
vt 0.772727 0.393651
vt 0.562500 1.000000
vt 0.562500 0.500000
vt 0.045455 0.393651
vt 0.531250 1.000000
vt 0.531250 0.500000
vt 0.227273 0.393651
vt 0.500000 1.000000
vt 0.500000 0.500000
vt 0.468750 1.000000
vt 0.468750 0.500000
vt 0.437500 1.000000
vt 0.437500 0.500000
vt 0.954545 0.236191
vt 0.406250 1.000000
vt 0.406250 0.500000
vt 0.343750 1.000000
vt 0.343750 0.500000
vt 0.312500 1.000000
vt 0.312500 0.500000
vt 0.281250 1.000000
vt 0.281250 0.500000
vt 0.250000 1.000000
vt 0.250000 0.500000
vt 0.218750 1.000000
vt 0.218750 0.500000
vt 0.187500 1.000000
vt 0.187500 0.500000
vt 0.545455 0.000000
vt 0.590909 0.078731
vt 0.500000 0.078731
vt 0.156250 1.000000
vt 0.156250 0.500000
vt 0.727273 0.000000
vt 0.125000 1.000000
vt 0.909091 0.000000
vt 0.093750 1.000000
vt 0.093750 0.500000
vt 0.062500 1.000000
vt 0.062500 0.500000
vt 0.296822 0.485388
vt 0.250000 0.490000
vt 0.203178 0.485388
vt 0.158156 0.471731
vt 0.116663 0.449553
vt 0.080294 0.419706
vt 0.050447 0.383337
vt 0.028269 0.341844
vt 0.014612 0.296822
vt 0.010000 0.250000
vt 0.014612 0.203178
vt 0.028269 0.158156
vt 0.050447 0.116663
vt 0.080294 0.080294
vt 0.116663 0.050447
vt 0.158156 0.028269
vt 0.203178 0.014612
vt 0.250000 0.010000
vt 0.296822 0.014612
vt 0.341844 0.028269
vt 0.383337 0.050447
vt 0.419706 0.080294
vt 0.449553 0.116663
vt 0.471731 0.158156
vt 0.485388 0.203178
vt 0.490000 0.250000
vt 0.485388 0.296822
vt 0.471731 0.341844
vt 0.449553 0.383337
vt 0.419706 0.419706
vt 0.383337 0.449553
vt 0.341844 0.471731
vt 0.181819 0.000000
vt 0.031250 1.000000
vt 0.031250 0.500000
vt 0.000000 1.000000
vt 0.000000 0.500000
vt 0.750000 0.490000
vt 0.796822 0.485388
vt 0.841844 0.471731
vt 0.883337 0.449553
vt 0.919706 0.419706
vt 0.949553 0.383337
vt 0.971731 0.341844
vt 0.985388 0.296822
vt 0.990000 0.250000
vt 0.985388 0.203178
vt 0.971731 0.158156
vt 0.949553 0.116663
vt 0.919706 0.080294
vt 0.883337 0.050447
vt 0.841844 0.028269
vt 0.796822 0.014612
vt 0.750000 0.010000
vt 0.703178 0.014612
vt 0.658156 0.028269
vt 0.616663 0.050447
vt 0.580294 0.080294
vt 0.550447 0.116663
vt 0.528269 0.158156
vt 0.514612 0.203178
vt 0.510000 0.250000
vt 0.514612 0.296822
vt 0.528269 0.341844
vt 0.550447 0.383337
vt 0.580294 0.419706
vt 0.616663 0.449553
vt 0.658156 0.471731
vt 0.703178 0.485388
vt 0.318182 0.393651
vt 0.272728 0.472382
vt 0.136365 0.393651
vt 0.090910 0.472382
vt 0.863636 0.393651
vt 0.818182 0.472382
vt 0.681818 0.393651
vt 0.636364 0.472382
vt 0.500000 0.393651
vt 0.454546 0.472382
vt 0.843250 0.588863
vt 0.833697 0.611927
vt 0.794218 0.611927
vt 0.815334 0.560948
vt 0.866314 0.937441
vt 0.866314 0.897962
vt 0.889378 0.888409
vt 0.917293 0.916324
vt 0.746541 0.611927
vt 0.781622 0.527235
vt 0.866314 0.985118
vt 0.951006 0.950037
vt 0.815334 0.662907
vt 0.781622 0.696619
vt 0.781622 0.950037
vt 0.815334 0.916325
vt 0.843250 0.634991
vt 0.843250 0.888409
vt 0.866314 0.644544
vt 0.866314 0.684023
vt 0.794218 0.865345
vt 0.833697 0.865345
vt 0.866314 0.731700
vt 0.746541 0.865345
vt 0.917293 0.662907
vt 0.951006 0.696619
vt 0.781622 0.780653
vt 0.815334 0.814366
vt 0.889378 0.634991
vt 0.843250 0.842281
vt 0.898931 0.611927
vt 0.938410 0.611927
vt 0.866314 0.793249
vt 0.866314 0.832728
vt 0.986087 0.611927
vt 0.866314 0.745572
vt 0.917294 0.560947
vt 0.951006 0.527235
vt 0.951006 0.780653
vt 0.917294 0.814365
vt 0.889378 0.588863
vt 0.889378 0.842281
vt 0.866314 0.579310
vt 0.866314 0.539831
vt 0.938410 0.865345
vt 0.898931 0.865345
vt 0.866314 0.492154
vt 0.986087 0.865345
vt 0.866314 0.585461
vt 0.847600 0.593213
vt 0.892780 0.865345
vt 0.885028 0.884059
vt 0.885028 0.593213
vt 0.885028 0.846631
vt 0.892780 0.611927
vt 0.866314 0.838879
vt 0.885028 0.630641
vt 0.847600 0.846631
vt 0.866314 0.638393
vt 0.839848 0.865345
vt 0.847600 0.630641
vt 0.847600 0.884059
vt 0.839848 0.611927
vt 0.866314 0.891811
vt 0.866314 0.611927
vt 0.866314 0.865345
vt 0.520711 0.060503
vt 0.517028 0.068490
vt 0.500000 0.064527
vt 0.500000 0.054411
vt 0.482972 0.068490
vt 0.479289 0.060503
vt 0.530457 0.065062
vt 0.522612 0.070678
vt 0.477388 0.070678
vt 0.469543 0.065062
vt 0.532878 0.067822
vt 0.526301 0.079422
vt 0.473699 0.079422
vt 0.467122 0.067822
vt 0.544695 0.083023
vt 0.529228 0.091098
vt 0.470772 0.091098
vt 0.455305 0.083023
vt 0.565647 0.115495
vt 0.537536 0.127779
vt 0.462464 0.127779
vt 0.434353 0.115495
vt 0.586916 0.172042
vt 0.626605 0.208159
vt 0.600470 0.238288
vt 0.535885 0.215568
vt 0.399530 0.238288
vt 0.373395 0.208159
vt 0.413084 0.172042
vt 0.464115 0.215568
vt 0.650908 0.240294
vt 0.636962 0.261221
vt 0.363038 0.261221
vt 0.349092 0.240294
vt 0.689501 0.268805
vt 0.655896 0.284413
vt 0.344104 0.284413
vt 0.310499 0.268805
vt 0.684517 0.317795
vt 0.659507 0.313152
vt 0.340493 0.313152
vt 0.315483 0.317795
vt 0.671357 0.334694
vt 0.649107 0.322437
vt 0.350893 0.322437
vt 0.328643 0.334694
vt 0.636775 0.370732
vt 0.613636 0.353108
vt 0.386364 0.353108
vt 0.363225 0.370732
vt 0.602261 0.395588
vt 0.594178 0.371277
vt 0.405822 0.371277
vt 0.397739 0.395588
vt 0.581044 0.398468
vt 0.577351 0.373341
vt 0.422649 0.373341
vt 0.418956 0.398468
vt 0.532016 0.387365
vt 0.539817 0.354339
vt 0.460183 0.354339
vt 0.467984 0.387365
vt 0.500000 0.382860
vt 0.500000 0.340417
vt 0.559135 0.334326
vt 0.579057 0.335646
vt 0.420943 0.335646
vt 0.440865 0.334326
vt 0.592090 0.332885
vt 0.407910 0.332885
vt 0.606163 0.325516
vt 0.393837 0.325516
vt 0.628251 0.311636
vt 0.371749 0.311636
vt 0.635551 0.300507
vt 0.364449 0.300507
vt 0.631484 0.283889
vt 0.368516 0.283889
vt 0.611331 0.264411
vt 0.388669 0.264411
vt 0.592372 0.254897
vt 0.407628 0.254897
vt 0.559669 0.267717
vt 0.440331 0.267717
vt 0.550878 0.277832
vt 0.500000 0.252445
vt 0.449122 0.277832
vt 0.544001 0.314523
vt 0.455999 0.314523
vt 0.500000 0.295691
vt 0.543637 0.293371
vt 0.456363 0.293371
vt 0.506819 0.075382
vt 0.500000 0.073497
vt 0.493181 0.075382
vt 0.511782 0.080633
vt 0.488218 0.080633
vt 0.512172 0.093457
vt 0.487828 0.093457
vt 0.514257 0.133422
vt 0.513874 0.097191
vt 0.486126 0.097191
vt 0.485743 0.133422
vt 0.520226 0.164615
vt 0.500000 0.157864
vt 0.500000 0.134352
vt 0.479774 0.164615
vt 0.500000 0.100063
vt 0.500000 0.091346
vt 0.530258 0.180239
vt 0.521901 0.181560
vt 0.517666 0.172353
vt 0.482334 0.172353
vt 0.478099 0.181560
vt 0.469742 0.180239
vt 0.523673 0.198817
vt 0.518957 0.194728
vt 0.481043 0.194728
vt 0.476327 0.198817
vt 0.500000 0.203867
vt 0.508211 0.197295
vt 0.491789 0.197295
vt 0.500000 0.197278
vt 0.500000 0.192167
vt 0.500000 0.165170
vt 0.513538 0.176949
vt 0.500000 0.171718
vt 0.486462 0.176949
vt 0.500000 0.186182
vt 0.508818 0.192407
vt 0.491182 0.192407
vt 0.515232 0.190709
vt 0.484768 0.190709
vt 0.516908 0.181873
vt 0.483092 0.181873
vt 0.544209 0.172814
vt 0.455791 0.172814
vt 0.541327 0.154899
vt 0.458673 0.154899
vt 0.578661 0.139176
vt 0.421339 0.139176
vt 0.583245 0.154155
vt 0.416755 0.154155
vt 0.500000 0.089977
vt 0.509911 0.090724
vt 0.490089 0.090724
vt 0.509713 0.082236
vt 0.490287 0.082236
vt 0.505196 0.077083
vt 0.494804 0.077083
vt 0.500000 0.075473
vt 0.503445 0.080840
vt 0.500000 0.080320
vt 0.496555 0.080840
vt 0.506660 0.083289
vt 0.493340 0.083289
vt 0.506822 0.086791
vt 0.493178 0.086791
vt 0.500000 0.085637
vt 0.562361 0.284338
vt 0.559190 0.294882
vt 0.437639 0.284338
vt 0.440810 0.294882
vt 0.563180 0.307151
vt 0.436820 0.307151
vt 0.570458 0.318697
vt 0.429542 0.318697
vt 0.569243 0.278245
vt 0.430757 0.278245
vt 0.589914 0.271772
vt 0.410086 0.271772
vt 0.602190 0.277180
vt 0.397810 0.277180
vt 0.617110 0.287175
vt 0.382890 0.287175
vt 0.618074 0.299197
vt 0.381926 0.299197
vt 0.615871 0.307438
vt 0.384129 0.307438
vt 0.598424 0.313725
vt 0.401576 0.313725
vt 0.590828 0.319797
vt 0.409172 0.319797
vt 0.582130 0.320991
vt 0.417870 0.320991
vt 0.578615 0.309394
vt 0.583998 0.312892
vt 0.421385 0.309394
vt 0.416002 0.312892
vt 0.589656 0.312336
vt 0.410344 0.312336
vt 0.596347 0.309249
vt 0.403653 0.309249
vt 0.606014 0.302517
vt 0.393986 0.302517
vt 0.607735 0.297520
vt 0.392265 0.297520
vt 0.606985 0.291216
vt 0.393015 0.291216
vt 0.598275 0.283083
vt 0.401725 0.283083
vt 0.589866 0.280167
vt 0.410134 0.280167
vt 0.576352 0.284624
vt 0.423648 0.284624
vt 0.572831 0.289915
vt 0.427169 0.289915
vt 0.573307 0.303342
vt 0.426693 0.303342
vt 0.572447 0.295716
vt 0.427553 0.295716
vt 0.529647 0.428636
vt 0.500000 0.428636
vt 0.470353 0.428636
vt 0.584616 0.428636
vt 0.415384 0.428636
vt 0.622301 0.417889
vt 0.377699 0.417889
vt 0.666214 0.388954
vt 0.333786 0.388954
vt 0.701481 0.344467
vt 0.298519 0.344467
vt 0.712163 0.315527
vt 0.287837 0.315527
vt 0.704305 0.260225
vt 0.295695 0.260225
vt 0.672947 0.224880
vt 0.327053 0.224880
vt 0.640497 0.198841
vt 0.359503 0.198841
vt 0.603553 0.023452
vt 0.625128 0.029461
vt 0.635753 0.082198
vt 0.598617 0.056841
vt 0.364247 0.082198
vt 0.374872 0.029461
vt 0.396447 0.023452
vt 0.401383 0.056841
vt 0.546781 0.009442
vt 0.556354 0.040906
vt 0.453219 0.009442
vt 0.443646 0.040906
vt 0.500000 0.033223
vt 0.527159 0.049514
vt 0.472841 0.049514
vt 0.537222 0.060794
vt 0.462778 0.060794
vt 0.558499 0.065137
vt 0.441501 0.065137
vt 0.588127 0.085177
vt 0.411873 0.085177
vt 0.607239 0.113940
vt 0.392761 0.113940
vt 0.612663 0.133675
vt 0.605467 0.151503
vt 0.394533 0.151503
vt 0.387337 0.133675
vt 0.600708 0.162985
vt 0.399292 0.162985
vt 0.922374 0.064228
vt 0.859647 0.117994
vt 0.823287 0.101559
vt 0.861342 0.027230
vt 0.176713 0.101559
vt 0.140353 0.117994
vt 0.077626 0.064228
vt 0.138658 0.027230
vt 0.765863 0.087001
vt 0.774604 0.010837
vt 0.234137 0.087001
vt 0.225396 0.010837
vt 0.661952 0.087561
vt 0.647010 0.028716
vt 0.338048 0.087561
vt 0.352990 0.028716
vt 0.743592 0.198572
vt 0.766410 0.233065
vt 0.256408 0.198572
vt 0.233590 0.233065
vt 0.987633 0.154243
vt 0.889478 0.177602
vt 0.110522 0.177602
vt 0.012367 0.154243
vt 0.899807 0.420886
vt 0.844317 0.347370
vt 0.881169 0.309153
vt 0.958963 0.357385
vt 0.118831 0.309153
vt 0.155683 0.347370
vt 0.100193 0.420886
vt 0.041037 0.357385
vt 0.903302 0.261367
vt 0.999860 0.253531
vt 0.096698 0.261367
vt 0.000140 0.253531
vt 0.724763 0.340212
vt 0.744725 0.304629
vt 0.766113 0.319494
vt 0.255275 0.304629
vt 0.275237 0.340212
vt 0.233887 0.319494
vt 0.793427 0.280495
vt 0.826663 0.297810
vt 0.206573 0.280495
vt 0.173337 0.297810
vt 0.823620 0.254612
vt 0.855331 0.267956
vt 0.176380 0.254612
vt 0.144669 0.267956
vt 0.835860 0.225225
vt 0.868309 0.233525
vt 0.164140 0.225225
vt 0.131691 0.233525
vt 0.813499 0.190705
vt 0.851288 0.181145
vt 0.148712 0.181145
vt 0.186501 0.190705
vt 0.772263 0.374010
vt 0.227737 0.374010
vt 0.744519 0.390057
vt 0.255481 0.390057
vt 0.824765 0.470987
vt 0.175235 0.470987
vt 0.792141 0.464714
vt 0.742181 0.461543
vt 0.726855 0.432574
vt 0.273145 0.432574
vt 0.257819 0.461543
vt 0.207859 0.464714
vt 0.795638 0.489991
vt 0.204362 0.489991
vt 0.786137 0.227788
vt 0.213863 0.227788
vt 0.802950 0.203415
vt 0.197050 0.203415
vt 0.769334 0.128771
vt 0.691484 0.146686
vt 0.230666 0.128771
vt 0.308516 0.146686
vt 0.780113 0.169386
vt 0.219887 0.169386
vt 0.803789 0.171181
vt 0.830917 0.139518
vt 0.169083 0.139518
vt 0.196211 0.171181
vt 0.574628 0.959188
vt 0.464516 0.959188
vt 0.477326 0.891852
vt 0.545439 0.884582
vt 0.272900 0.891852
vt 0.285710 0.959188
vt 0.175598 0.959188
vt 0.204787 0.884582
vt 0.605134 0.846978
vt 0.715894 0.897069
vt 0.145092 0.846978
vt 0.034332 0.897069
vt 0.605360 0.784410
vt 0.683874 0.757011
vt 0.144866 0.784410
vt 0.066352 0.757011
vt 0.574835 0.744212
vt 0.617867 0.719156
vt 0.175391 0.744212
vt 0.132359 0.719156
vt 0.534996 0.712528
vt 0.568728 0.682132
vt 0.215230 0.712528
vt 0.181498 0.682132
vt 0.483006 0.686791
vt 0.508539 0.641024
vt 0.267220 0.686791
vt 0.241687 0.641024
vt 0.513415 0.736977
vt 0.478880 0.719593
vt 0.271346 0.719593
vt 0.236811 0.736977
vt 0.541117 0.760754
vt 0.209109 0.760754
vt 0.557599 0.789442
vt 0.192627 0.789442
vt 0.553841 0.821849
vt 0.196385 0.821849
vt 0.524671 0.842380
vt 0.225555 0.842380
vt 0.485193 0.845321
vt 0.265033 0.845321
vt 0.786150 0.181127
vt 0.770208 0.191225
vt 0.213850 0.181127
vt 0.229792 0.191225
vt 0.408153 0.587507
vt 0.409610 0.674022
vt 0.342073 0.587507
vt 0.340616 0.674022
vt 0.400301 0.910556
vt 0.414155 0.878318
vt 0.336071 0.878318
vt 0.349925 0.910556
vt 0.443630 0.713731
vt 0.306596 0.713731
vt 0.429725 0.728622
vt 0.392812 0.710774
vt 0.357414 0.710774
vt 0.320501 0.728622
vt 0.422979 0.754609
vt 0.432640 0.746527
vt 0.327247 0.754609
vt 0.317586 0.746527
vt 0.427719 0.796173
vt 0.391578 0.815187
vt 0.358648 0.815187
vt 0.322507 0.796173
vt 0.448277 0.830976
vt 0.301949 0.830976
vt 0.797710 0.195652
vt 0.802580 0.199758
vt 0.197420 0.199758
vt 0.202290 0.195652
vt 0.789609 0.184671
vt 0.210391 0.184671
vt 0.466042 0.804091
vt 0.490498 0.816075
vt 0.284184 0.804091
vt 0.259728 0.816075
vt 0.448042 0.783921
vt 0.302184 0.783921
vt 0.438745 0.764960
vt 0.311481 0.764960
vt 0.445216 0.756351
vt 0.305010 0.756351
vt 0.449819 0.743458
vt 0.300407 0.743458
vt 0.456307 0.732687
vt 0.293919 0.732687
vt 0.475471 0.740871
vt 0.274755 0.740871
vt 0.514211 0.817769
vt 0.236015 0.817769
vt 0.527961 0.808598
vt 0.222265 0.808598
vt 0.530079 0.790754
vt 0.220147 0.790754
vt 0.518620 0.772385
vt 0.231606 0.772385
vt 0.498668 0.755033
vt 0.251558 0.755033
vt 0.468029 0.756171
vt 0.459660 0.770459
vt 0.282197 0.756171
vt 0.290566 0.770459
vt 0.487167 0.769899
vt 0.477354 0.785393
vt 0.263059 0.769899
vt 0.272872 0.785393
vt 0.504617 0.782999
vt 0.496545 0.797122
vt 0.245609 0.782999
vt 0.253681 0.797122
vt 0.516137 0.792591
vt 0.513713 0.804019
vt 0.234089 0.792591
vt 0.236513 0.804019
vt 0.574269 0.607668
vt 0.613510 0.655816
vt 0.175957 0.607668
vt 0.136716 0.655816
vt 0.644031 0.693270
vt 0.106195 0.693270
vt 0.668163 0.712097
vt 0.082063 0.712097
vt 0.727131 0.698475
vt 0.676584 0.686010
vt 0.023095 0.698475
vt 0.073642 0.686010
vt 0.729804 0.624370
vt 0.667013 0.640198
vt 0.020422 0.624370
vt 0.083213 0.640198
vt 0.721292 0.572934
vt 0.648152 0.594596
vt 0.028934 0.572934
vt 0.102074 0.594596
vt 0.630034 0.557583
vt 0.717709 0.538143
vt 0.032517 0.538143
vt 0.120192 0.557583
vt 0.526877 0.539235
vt 0.223349 0.539235
s 0
f 1/1/1 2/2/1 4/3/1 3/4/1
f 3/4/2 4/3/2 8/5/2 7/6/2
f 7/6/3 8/5/3 6/7/3 5/8/3
f 5/8/4 6/7/4 2/9/4 1/10/4
f 3/11/5 7/6/5 5/8/5 1/12/5
f 8/5/6 4/13/6 2/14/6 6/7/6
f 98/15/7 81/16/7 91/17/7
f 107/18/8 109/19/8 106/20/8
f 11/21/9 12/22/9 14/23/9 13/24/9
f 103/25/10 90/26/10 83/27/10
f 107/18/11 106/20/11 77/28/11
f 13/24/12 14/23/12 16/29/12 15/30/12
f 95/31/13 91/17/13 82/32/13
f 114/33/14 75/34/14 108/35/14
f 15/30/15 16/29/15 18/36/15 17/37/15
f 100/38/16 80/39/16 92/40/16
f 109/41/17 114/33/17 108/35/17
f 17/37/18 18/36/18 20/42/18 19/13/18
f 97/43/19 100/38/19 92/40/19
f 109/41/20 108/35/20 76/44/20
f 19/13/21 20/42/21 22/45/21 21/46/21
f 97/43/22 92/40/22 81/16/22
f 113/47/23 10/48/23 110/49/23
f 21/46/24 22/45/24 24/50/24 23/51/24
f 102/52/25 79/53/25 93/54/25
f 111/55/26 113/47/26 110/49/26
f 23/51/27 24/50/27 26/56/27 25/57/27
f 99/58/28 102/52/28 93/54/28
f 111/55/29 110/49/29 78/59/29
f 25/57/30 26/56/30 28/60/30 27/61/30
f 99/58/31 93/54/31 80/62/31
f 113/63/32 9/64/32 112/65/32
f 27/61/33 28/60/33 30/66/33 29/67/33
f 104/68/34 83/27/34 94/69/34
f 114/70/35 113/63/35 112/65/35
f 29/67/36 30/66/36 32/71/36 31/72/36
f 101/73/37 104/68/37 94/69/37
f 114/70/38 112/65/38 75/74/38
f 31/72/39 32/71/39 34/75/39 33/76/39
f 101/73/40 94/69/40 79/53/40
f 83/27/41 90/26/41 88/77/41
f 33/76/42 34/75/42 36/9/42 35/5/42
f 105/78/43 77/28/43 95/31/43
f 82/32/44 91/17/44 85/79/44
f 35/5/45 36/9/45 38/80/45 37/81/45
f 96/82/46 105/78/46 95/31/46
f 81/16/47 92/40/47 86/83/47
f 37/81/48 38/80/48 40/84/48 39/85/48
f 96/82/49 95/31/49 82/32/49
f 80/62/50 93/54/50 87/86/50
f 39/85/51 40/84/51 42/87/51 41/88/51
f 106/20/52 76/44/52 97/43/52
f 79/53/53 94/69/53 89/89/53
f 41/88/54 42/87/54 44/90/54 43/91/54
f 98/15/55 106/20/55 97/43/55
f 78/59/56 96/82/56 103/25/56
f 43/91/57 44/90/57 46/92/57 45/93/57
f 98/15/58 97/43/58 81/16/58
f 77/28/59 98/15/59 95/31/59
f 45/93/60 46/92/60 48/94/60 47/95/60
f 108/35/61 75/34/61 99/96/61
f 76/44/62 100/38/62 97/43/62
f 47/95/63 48/94/63 50/97/63 49/98/63
f 100/38/64 108/35/64 99/96/64
f 75/74/65 102/52/65 99/58/65
f 49/98/66 50/97/66 52/10/66 51/6/66
f 100/38/67 99/96/67 80/39/67
f 9/64/68 104/68/68 101/73/68
f 51/6/69 52/10/69 54/99/69 53/100/69
f 112/65/70 9/64/70 101/73/70
f 78/59/71 105/78/71 96/82/71
f 53/100/72 54/99/72 56/101/72 55/102/72
f 102/52/73 112/65/73 101/73/73
f 77/28/74 106/20/74 98/15/74
f 55/102/75 56/101/75 58/103/75 57/104/75
f 102/52/76 101/73/76 79/53/76
f 76/44/77 108/35/77 100/38/77
f 57/104/78 58/103/78 60/105/78 59/106/78
f 111/55/79 78/59/79 103/25/79
f 75/74/80 112/65/80 102/52/80
f 59/106/81 60/105/81 62/107/81 61/108/81
f 104/68/82 111/55/82 103/25/82
f 9/64/83 111/55/83 104/68/83
f 61/108/84 62/107/84 64/109/84 63/110/84
f 104/68/85 103/25/85 83/27/85
f 10/111/86 107/112/86 110/113/86
f 63/110/87 64/109/87 66/114/87 65/115/87
f 107/112/88 77/28/88 105/78/88
f 10/116/89 109/19/89 107/18/89
f 65/115/90 66/114/90 68/117/90 67/11/90
f 110/113/91 107/112/91 105/78/91
f 10/118/92 114/33/92 109/41/92
f 67/11/93 68/117/93 70/119/93 69/120/93
f 110/113/94 105/78/94 78/59/94
f 9/64/95 113/47/95 111/55/95
f 69/120/96 70/119/96 72/121/96 71/122/96
f 14/123/6 12/124/6 74/125/6 72/126/6 70/127/6 68/128/6 66/129/6 64/130/6 62/131/6 60/132/6 58/133/6 56/134/6 54/135/6 52/136/6 50/137/6 48/138/6 46/139/6 44/140/6 42/141/6 40/142/6 38/143/6 36/144/6 34/145/6 32/146/6 30/147/6 28/148/6 26/149/6 24/150/6 22/151/6 20/152/6 18/153/6 16/154/6
f 10/155/97 113/63/97 114/70/97
f 71/122/98 72/121/98 74/156/98 73/157/98
f 95/31/99 98/15/99 91/17/99
f 109/19/100 76/44/100 106/20/100
f 73/157/101 74/156/101 12/158/101 11/159/101
f 11/160/5 13/161/5 15/162/5 17/163/5 19/164/5 21/165/5 23/166/5 25/167/5 27/168/5 29/169/5 31/170/5 33/171/5 35/172/5 37/173/5 39/174/5 41/175/5 43/176/5 45/177/5 47/178/5 49/179/5 51/180/5 53/181/5 55/182/5 57/183/5 59/184/5 61/185/5 63/186/5 65/187/5 67/188/5 69/189/5 71/190/5 73/191/5
f 103/25/102 96/82/102 90/26/102
f 96/82/103 82/32/103 90/26/103
f 89/89/104 88/192/104 84/193/104
f 89/89/105 94/69/105 88/192/105
f 94/69/106 83/27/106 88/192/106
f 87/86/107 89/194/107 84/195/107
f 87/86/108 93/54/108 89/194/108
f 93/54/109 79/53/109 89/194/109
f 86/83/110 87/196/110 84/197/110
f 86/83/111 92/40/111 87/196/111
f 92/40/112 80/39/112 87/196/112
f 85/79/113 86/198/113 84/199/113
f 85/79/114 91/17/114 86/198/114
f 91/17/115 81/16/115 86/198/115
f 88/77/116 85/200/116 84/201/116
f 88/77/117 90/26/117 85/200/117
f 90/26/118 82/32/118 85/200/118
f 161/202/119 115/203/119 117/204/119 159/205/119
f 118/206/120 116/207/120 162/208/120 160/209/120
f 159/205/121 117/204/121 119/210/121 157/211/121
f 120/212/122 118/206/122 160/209/122 158/213/122
f 117/204/123 123/214/123 121/215/123 119/210/123
f 122/216/124 124/217/124 118/206/124 120/212/124
f 115/203/125 125/218/125 123/214/125 117/204/125
f 124/217/126 126/219/126 116/207/126 118/206/126
f 125/218/127 127/220/127 129/221/127 123/214/127
f 130/222/128 128/223/128 126/219/128 124/217/128
f 123/214/129 129/221/129 131/224/129 121/215/129
f 132/225/130 130/222/130 124/217/130 122/216/130
f 129/221/131 135/226/131 133/227/131 131/224/131
f 134/228/132 136/229/132 130/222/132 132/225/132
f 127/220/133 137/230/133 135/226/133 129/221/133
f 136/229/134 138/231/134 128/223/134 130/222/134
f 137/230/135 139/232/135 141/233/135 135/226/135
f 142/234/136 140/235/136 138/231/136 136/229/136
f 135/226/137 141/233/137 143/236/137 133/227/137
f 144/237/138 142/234/138 136/229/138 134/228/138
f 141/233/139 147/238/139 145/239/139 143/236/139
f 146/240/140 148/241/140 142/234/140 144/237/140
f 139/232/141 149/242/141 147/238/141 141/233/141
f 148/241/142 150/243/142 140/235/142 142/234/142
f 149/242/143 151/244/143 153/245/143 147/238/143
f 154/246/144 152/247/144 150/243/144 148/241/144
f 147/238/145 153/245/145 155/248/145 145/239/145
f 156/249/146 154/246/146 148/241/146 146/240/146
f 153/245/147 159/205/147 157/211/147 155/248/147
f 158/213/148 160/209/148 154/246/148 156/249/148
f 151/244/149 161/202/149 159/205/149 153/245/149
f 160/209/150 162/208/150 152/247/150 154/246/150
f 161/202/151 151/244/151 165/250/151 163/251/151
f 166/252/152 152/247/152 162/208/152 164/253/152
f 151/244/153 149/242/153 167/254/153 165/250/153
f 168/255/154 150/243/154 152/247/154 166/252/154
f 149/242/155 139/232/155 169/256/155 167/254/155
f 170/257/156 140/235/156 150/243/156 168/255/156
f 139/232/157 137/230/157 171/258/157 169/256/157
f 172/259/158 138/231/158 140/235/158 170/257/158
f 137/230/159 127/220/159 173/260/159 171/258/159
f 174/261/160 128/223/160 138/231/160 172/259/160
f 127/220/161 125/218/161 177/262/161 173/260/161
f 178/263/162 126/219/162 128/223/162 174/261/162
f 125/218/163 115/203/163 179/264/163 177/262/163
f 180/265/164 116/207/164 126/219/164 178/263/164
f 115/203/165 161/202/165 163/251/165 179/264/165
f 164/253/166 162/208/166 116/207/166 180/265/166
f 175/266/167 179/264/167 163/251/167
f 164/253/168 180/265/168 176/267/168
f 177/262/169 179/264/169 175/266/169
f 176/267/170 180/265/170 178/263/170
f 175/266/171 173/260/171 177/262/171
f 178/263/172 174/261/172 176/267/172
f 175/266/173 171/258/173 173/260/173
f 174/261/174 172/259/174 176/267/174
f 175/266/175 169/256/175 171/258/175
f 172/259/176 170/257/176 176/267/176
f 175/266/177 167/254/177 169/256/177
f 170/257/178 168/255/178 176/267/178
f 175/266/179 165/250/179 167/254/179
f 168/255/180 166/252/180 176/267/180
f 175/266/181 163/251/181 165/250/181
f 166/252/182 164/253/182 176/267/182
f 203/268/183 288/269/183 290/270/183 205/271/183
f 290/270/184 289/272/184 204/273/184 205/271/184
f 201/274/185 286/275/185 288/269/185 203/268/185
f 289/272/186 287/276/186 202/277/186 204/273/186
f 199/278/187 284/279/187 286/275/187 201/274/187
f 287/276/188 285/280/188 200/281/188 202/277/188
f 197/282/189 282/283/189 284/279/189 199/278/189
f 285/280/190 283/284/190 198/285/190 200/281/190
f 195/286/191 280/287/191 282/283/191 197/282/191
f 283/284/192 281/288/192 196/289/192 198/285/192
f 193/290/193 206/291/193 260/292/193 278/293/193
f 261/294/194 207/295/194 194/296/194 279/297/194
f 206/291/195 208/298/195 262/299/195 260/292/195
f 263/300/196 209/301/196 207/295/196 261/294/196
f 208/298/197 210/302/197 264/303/197 262/299/197
f 265/304/198 211/305/198 209/301/198 263/300/198
f 210/302/199 212/306/199 266/307/199 264/303/199
f 267/308/200 213/309/200 211/305/200 265/304/200
f 212/306/201 214/310/201 268/311/201 266/307/201
f 269/312/202 215/313/202 213/309/202 267/308/202
f 214/310/203 216/314/203 270/315/203 268/311/203
f 271/316/204 217/317/204 215/313/204 269/312/204
f 216/314/205 218/318/205 272/319/205 270/315/205
f 273/320/206 219/321/206 217/317/206 271/316/206
f 218/318/207 220/322/207 274/323/207 272/319/207
f 275/324/208 221/325/208 219/321/208 273/320/208
f 220/322/209 222/326/209 276/327/209 274/323/209
f 277/328/210 223/329/210 221/325/210 275/324/210
f 222/326/211 181/330/211 182/331/211 276/327/211
f 182/331/212 181/330/212 223/329/212 277/328/212
f 224/332/213 242/333/213 274/323/213 276/327/213
f 275/324/214 243/334/214 225/335/214 277/328/214
f 242/333/215 293/336/215 272/319/215 274/323/215
f 273/320/216 294/337/216 243/334/216 275/324/216
f 240/338/217 270/315/217 272/319/217 293/336/217
f 273/320/218 271/316/218 241/339/218 294/337/218
f 238/340/219 268/311/219 270/315/219 240/338/219
f 271/316/220 269/312/220 239/341/220 241/339/220
f 236/342/221 266/307/221 268/311/221 238/340/221
f 269/312/222 267/308/222 237/343/222 239/341/222
f 234/344/223 264/303/223 266/307/223 236/342/223
f 267/308/224 265/304/224 235/345/224 237/343/224
f 232/346/225 262/299/225 264/303/225 234/344/225
f 265/304/226 263/300/226 233/347/226 235/345/226
f 230/348/227 260/292/227 262/299/227 232/346/227
f 263/300/228 261/294/228 231/349/228 233/347/228
f 228/350/229 278/293/229 260/292/229 230/348/229
f 261/294/230 279/297/230 229/351/230 231/349/230
f 228/350/231 295/352/231 291/353/231 278/293/231
f 291/353/232 296/354/232 229/351/232 279/297/232
f 224/332/233 276/327/233 182/331/233 226/355/233
f 182/331/234 277/328/234 225/335/234 227/356/234
f 226/355/235 182/331/235 292/357/235 297/358/235
f 292/357/236 182/331/236 227/356/236 298/359/236
f 291/353/237 295/352/237 297/358/237 292/357/237
f 298/359/238 296/354/238 291/353/238 292/357/238
f 249/360/239 251/361/239 290/270/239 288/269/239
f 290/270/240 251/361/240 250/362/240 289/272/240
f 247/363/241 249/360/241 288/269/241 286/275/241
f 289/272/242 250/362/242 248/364/242 287/276/242
f 245/365/243 247/363/243 286/275/243 284/279/243
f 287/276/244 248/364/244 246/366/244 285/280/244
f 280/287/245 301/367/245 299/368/245 282/283/245
f 300/369/246 302/370/246 281/288/246 283/284/246
f 245/365/247 284/279/247 282/283/247 299/368/247
f 283/284/248 285/280/248 246/366/248 300/369/248
f 258/371/249 304/372/249 303/373/249 301/367/249
f 303/373/250 304/372/250 259/374/250 302/370/250
f 299/368/251 301/367/251 303/373/251 183/375/251
f 303/373/252 302/370/252 300/369/252 183/375/252
f 244/376/253 245/365/253 299/368/253 183/375/253
f 300/369/253 246/366/253 244/376/253 183/375/253
f 256/377/254 307/378/254 305/379/254 258/371/254
f 306/380/255 308/381/255 257/382/255 259/374/255
f 254/383/256 309/384/256 307/378/256 256/377/256
f 308/381/257 310/385/257 255/386/257 257/382/257
f 253/387/258 311/388/258 309/384/258 254/383/258
f 310/385/259 312/389/259 253/387/259 255/386/259
f 252/390/260 185/391/260 311/388/260 253/387/260
f 312/389/261 185/391/261 252/390/261 253/387/261
f 304/372/262 258/371/262 305/379/262 184/392/262
f 306/380/263 259/374/263 304/372/263 184/392/263
f 184/392/264 305/379/264 320/393/264 322/394/264
f 321/395/265 306/380/265 184/392/265 322/394/265
f 185/391/266 313/396/266 314/397/266 311/388/266
f 315/398/267 313/396/267 185/391/267 312/389/267
f 311/388/268 314/397/268 316/399/268 309/384/268
f 317/400/269 315/398/269 312/389/269 310/385/269
f 309/384/270 316/399/270 318/401/270 307/378/270
f 319/402/271 317/400/271 310/385/271 308/381/271
f 307/378/272 318/401/272 320/393/272 305/379/272
f 321/395/273 319/402/273 308/381/273 306/380/273
f 313/396/274 318/401/274 316/399/274 314/397/274
f 317/400/275 319/402/275 313/396/275 315/398/275
f 313/396/276 322/394/276 320/393/276 318/401/276
f 321/395/277 322/394/277 313/396/277 319/402/277
f 253/387/278 254/383/278 278/293/278 291/353/278
f 279/297/279 255/386/279 253/387/279 291/353/279
f 254/383/280 256/377/280 325/403/280 278/293/280
f 326/404/281 257/382/281 255/386/281 279/297/281
f 256/377/282 258/371/282 327/405/282 325/403/282
f 328/406/283 259/374/283 257/382/283 326/404/283
f 258/371/284 301/367/284 280/287/284 327/405/284
f 281/288/285 302/370/285 259/374/285 328/406/285
f 195/286/286 323/407/286 327/405/286 280/287/286
f 328/406/287 324/408/287 196/289/287 281/288/287
f 323/407/288 329/409/288 325/403/288 327/405/288
f 326/404/289 330/410/289 324/408/289 328/406/289
f 193/290/290 278/293/290 325/403/290 329/409/290
f 326/404/291 279/297/291 194/296/291 330/410/291
f 245/365/292 244/376/292 186/411/292 336/412/292
f 186/411/293 244/376/293 246/366/293 337/413/293
f 247/363/294 245/365/294 336/412/294 334/414/294
f 337/413/295 246/366/295 248/364/295 335/415/295
f 249/360/296 247/363/296 334/414/296 332/416/296
f 335/415/297 248/364/297 250/362/297 333/417/297
f 251/361/298 249/360/298 332/416/298 331/418/298
f 333/417/299 250/362/299 251/361/299 331/418/299
f 331/418/300 332/416/300 343/419/300 345/420/300
f 344/421/301 333/417/301 331/418/301 345/420/301
f 332/416/302 334/414/302 341/422/302 343/419/302
f 342/423/303 335/415/303 333/417/303 344/421/303
f 334/414/304 336/412/304 339/424/304 341/422/304
f 340/425/305 337/413/305 335/415/305 342/423/305
f 336/412/306 186/411/306 338/426/306 339/424/306
f 338/426/307 186/411/307 337/413/307 340/425/307
f 338/426/308 345/420/308 343/419/308 339/424/308
f 344/421/309 345/420/309 338/426/309 340/425/309
f 339/424/310 343/419/310 341/422/310
f 342/423/311 344/421/311 340/425/311
f 297/358/312 295/352/312 348/427/312 346/428/312
f 349/429/313 296/354/313 298/359/313 347/430/313
f 226/355/314 297/358/314 346/428/314 368/431/314
f 347/430/315 298/359/315 227/356/315 369/432/315
f 224/332/316 226/355/316 368/431/316 370/433/316
f 369/432/317 227/356/317 225/335/317 371/434/317
f 295/352/318 228/350/318 366/435/318 348/427/318
f 367/436/319 229/351/319 296/354/319 349/429/319
f 228/350/320 230/348/320 364/437/320 366/435/320
f 365/438/321 231/349/321 229/351/321 367/436/321
f 230/348/322 232/346/322 362/439/322 364/437/322
f 363/440/323 233/347/323 231/349/323 365/438/323
f 232/346/324 234/344/324 360/441/324 362/439/324
f 361/442/325 235/345/325 233/347/325 363/440/325
f 234/344/326 236/342/326 358/443/326 360/441/326
f 359/444/327 237/343/327 235/345/327 361/442/327
f 236/342/328 238/340/328 356/445/328 358/443/328
f 357/446/329 239/341/329 237/343/329 359/444/329
f 238/340/330 240/338/330 354/447/330 356/445/330
f 355/448/331 241/339/331 239/341/331 357/446/331
f 240/338/332 293/336/332 350/449/332 354/447/332
f 351/450/333 294/337/333 241/339/333 355/448/333
f 293/336/334 242/333/334 352/451/334 350/449/334
f 353/452/335 243/334/335 294/337/335 351/450/335
f 242/333/336 224/332/336 370/433/336 352/451/336
f 371/434/337 225/335/337 243/334/337 353/452/337
f 352/451/338 370/433/338 372/453/338 390/454/338
f 373/455/339 371/434/339 353/452/339 391/456/339
f 350/449/340 352/451/340 390/454/340 392/457/340
f 391/456/341 353/452/341 351/450/341 393/458/341
f 354/447/342 350/449/342 392/457/342 388/459/342
f 393/458/343 351/450/343 355/448/343 389/460/343
f 356/445/344 354/447/344 388/459/344 386/461/344
f 389/460/345 355/448/345 357/446/345 387/462/345
f 358/443/346 356/445/346 386/461/346 384/463/346
f 387/462/347 357/446/347 359/444/347 385/464/347
f 360/441/348 358/443/348 384/463/348 382/465/348
f 385/464/349 359/444/349 361/442/349 383/466/349
f 362/439/350 360/441/350 382/465/350 380/467/350
f 383/466/351 361/442/351 363/440/351 381/468/351
f 364/437/352 362/439/352 380/467/352 378/469/352
f 381/468/353 363/440/353 365/438/353 379/470/353
f 366/435/354 364/437/354 378/469/354 376/471/354
f 379/470/355 365/438/355 367/436/355 377/472/355
f 348/427/356 366/435/356 376/471/356 394/473/356
f 377/472/357 367/436/357 349/429/357 395/474/357
f 370/433/358 368/431/358 374/475/358 372/453/358
f 375/476/359 369/432/359 371/434/359 373/455/359
f 368/431/360 346/428/360 396/477/360 374/475/360
f 397/478/361 347/430/361 369/432/361 375/476/361
f 346/428/362 348/427/362 394/473/362 396/477/362
f 395/474/363 349/429/363 347/430/363 397/478/363
f 181/330/364 222/326/364 398/479/364 187/480/364
f 399/481/365 223/329/365 181/330/365 187/480/365
f 222/326/366 220/322/366 400/482/366 398/479/366
f 401/483/367 221/325/367 223/329/367 399/481/367
f 220/322/368 218/318/368 402/484/368 400/482/368
f 403/485/369 219/321/369 221/325/369 401/483/369
f 218/318/370 216/314/370 404/486/370 402/484/370
f 405/487/371 217/317/371 219/321/371 403/485/371
f 216/314/372 214/310/372 406/488/372 404/486/372
f 407/489/373 215/313/373 217/317/373 405/487/373
f 214/310/374 212/306/374 408/490/374 406/488/374
f 409/491/375 213/309/375 215/313/375 407/489/375
f 212/306/376 210/302/376 410/492/376 408/490/376
f 411/493/377 211/305/377 213/309/377 409/491/377
f 210/302/378 208/298/378 412/494/378 410/492/378
f 413/495/379 209/301/379 211/305/379 411/493/379
f 208/298/380 206/291/380 414/496/380 412/494/380
f 415/497/381 207/295/381 209/301/381 413/495/381
f 422/498/382 423/499/382 442/500/382 452/501/382
f 443/502/383 423/503/383 422/504/383 453/505/383
f 421/506/384 422/498/384 452/501/384 450/507/384
f 453/505/385 422/504/385 421/508/385 451/509/385
f 420/510/386 421/506/386 450/507/386 454/511/386
f 451/509/387 421/508/387 420/510/387 455/512/387
f 203/268/388 205/271/388 420/510/388 454/511/388
f 420/510/389 205/271/389 204/273/389 455/512/389
f 201/274/390 203/268/390 454/511/390 448/513/390
f 455/512/391 204/273/391 202/277/391 449/514/391
f 199/278/392 201/274/392 448/513/392 444/515/392
f 449/514/393 202/277/393 200/281/393 445/516/393
f 197/282/394 199/278/394 444/515/394 446/517/394
f 445/516/395 200/281/395 198/285/395 447/518/395
f 444/515/396 450/507/396 452/501/396 446/517/396
f 453/505/397 451/509/397 445/516/397 447/518/397
f 444/515/398 448/513/398 454/511/398 450/507/398
f 455/512/399 449/514/399 445/516/399 451/509/399
f 440/519/400 446/517/400 452/501/400 442/500/400
f 453/505/401 447/518/401 441/520/401 443/502/401
f 195/286/402 197/282/402 446/517/402 440/519/402
f 447/518/403 198/285/403 196/289/403 441/520/403
f 323/407/404 456/521/404 458/522/404 329/409/404
f 459/523/405 457/524/405 324/408/405 330/410/405
f 195/286/406 440/519/406 456/521/406 323/407/406
f 457/524/407 441/520/407 196/289/407 324/408/407
f 193/290/408 329/409/408 458/522/408 460/525/408
f 459/523/409 330/410/409 194/296/409 461/526/409
f 193/290/410 460/525/410 414/496/410 206/291/410
f 415/497/411 461/526/411 194/296/411 207/295/411
f 191/527/412 438/528/412 466/529/412 418/530/412
f 467/531/413 439/532/413 191/533/413 418/534/413
f 418/530/414 466/529/414 464/535/414 192/536/414
f 465/537/415 467/531/415 418/534/415 192/538/415
f 192/536/416 464/535/416 462/539/416 419/540/416
f 463/541/417 465/537/417 192/538/417 419/542/417
f 419/540/418 462/539/418 442/500/418 423/499/418
f 443/502/419 463/541/419 419/542/419 423/503/419
f 440/519/420 442/500/420 462/539/420 456/521/420
f 463/541/421 443/502/421 441/520/421 457/524/421
f 410/492/422 412/494/422 432/543/422 424/544/422
f 433/545/423 413/495/423 411/493/423 425/546/423
f 190/547/424 430/548/424 438/528/424 191/527/424
f 439/532/425 431/549/425 190/550/425 191/533/425
f 416/551/426 472/552/426 470/553/426 417/554/426
f 471/555/427 473/556/427 416/557/427 417/558/427
f 417/554/428 470/553/428 468/559/428 189/560/428
f 469/561/429 471/555/429 417/558/429 189/562/429
f 189/560/430 468/559/430 430/548/430 190/547/430
f 431/549/431 469/561/431 189/562/431 190/550/431
f 406/563/432 408/490/432 476/564/432 478/565/432
f 477/566/433 409/491/433 407/567/433 479/568/433
f 478/565/434 476/564/434 482/569/434 480/570/434
f 483/571/435 477/566/435 479/568/435 481/572/435
f 480/570/436 482/569/436 484/573/436 486/574/436
f 485/575/437 483/571/437 481/572/437 487/576/437
f 486/574/438 484/573/438 490/577/438 488/578/438
f 491/579/439 485/575/439 487/576/439 489/580/439
f 428/581/440 492/582/440 488/578/440 490/577/440
f 489/580/441 493/583/441 429/584/441 491/579/441
f 430/548/442 468/559/442 488/578/442 492/582/442
f 489/580/443 469/561/443 431/549/443 493/583/443
f 468/559/444 470/553/444 486/574/444 488/578/444
f 487/576/445 471/555/445 469/561/445 489/580/445
f 470/553/446 472/552/446 480/570/446 486/574/446
f 481/572/447 473/556/447 471/555/447 487/576/447
f 472/552/448 474/585/448 478/565/448 480/570/448
f 479/568/449 475/586/449 473/556/449 481/572/449
f 404/587/450 406/563/450 478/565/450 474/585/450
f 479/568/451 407/567/451 405/588/451 475/586/451
f 188/589/452 474/585/452 472/552/452 416/551/452
f 473/556/453 475/586/453 188/590/453 416/557/453
f 398/591/454 400/592/454 402/593/454 404/587/454
f 403/594/455 401/595/455 399/596/455 405/588/455
f 398/591/456 404/587/456 474/585/456 188/589/456
f 475/586/457 405/588/457 399/596/457 188/590/457
f 187/597/458 398/591/458 188/589/458
f 188/590/459 399/596/459 187/598/459
f 408/490/460 410/492/460 424/544/460 476/564/460
f 425/546/461 411/493/461 409/491/461 477/566/461
f 424/544/462 426/599/462 482/569/462 476/564/462
f 483/571/463 427/600/463 425/546/463 477/566/463
f 426/599/464 496/601/464 484/573/464 482/569/464
f 485/575/465 497/602/465 427/600/465 483/571/465
f 428/581/466 490/577/466 484/573/466 496/601/466
f 485/575/467 491/579/467 429/584/467 497/602/467
f 462/539/468 464/535/468 500/603/468 498/604/468
f 501/605/469 465/537/469 463/541/469 499/606/469
f 432/543/470 498/604/470 500/603/470 434/607/470
f 501/605/471 499/606/471 433/545/471 435/608/471
f 412/494/472 414/496/472 498/604/472 432/543/472
f 499/606/473 415/497/473 413/495/473 433/545/473
f 414/496/474 458/522/474 456/521/474 498/604/474
f 457/524/475 459/523/475 415/497/475 499/606/475
f 456/521/476 462/539/476 498/604/476
f 499/606/477 463/541/477 457/524/477
f 414/496/478 460/525/478 458/522/478
f 459/523/479 461/526/479 415/497/479
f 428/581/480 436/609/480 494/610/480 492/582/480
f 495/611/481 437/612/481 429/584/481 493/583/481
f 430/548/482 492/582/482 494/610/482 438/528/482
f 495/611/483 493/583/483 431/549/483 439/532/483
f 434/607/484 500/603/484 494/610/484 436/609/484
f 495/611/485 501/605/485 435/608/485 437/612/485
f 464/535/486 466/529/486 494/610/486 500/603/486
f 495/611/487 467/531/487 465/537/487 501/605/487
f 438/528/488 494/610/488 466/529/488
f 467/531/489 495/611/489 439/532/489
f 514/613/490 502/614/490 528/615/490 516/616/490
f 529/617/491 503/618/491 515/619/491 517/620/491
f 514/613/492 516/616/492 518/621/492 512/622/492
f 519/623/493 517/620/493 515/619/493 513/624/493
f 512/622/494 518/621/494 520/625/494 510/626/494
f 521/627/495 519/623/495 513/624/495 511/628/495
f 510/626/496 520/625/496 522/629/496 508/630/496
f 523/631/497 521/627/497 511/628/497 509/632/497
f 508/630/498 522/629/498 524/633/498 506/634/498
f 525/635/499 523/631/499 509/632/499 507/636/499
f 506/634/500 524/633/500 526/637/500 504/638/500
f 527/639/501 525/635/501 507/636/501 505/640/501
f 524/633/502 534/641/502 532/642/502 526/637/502
f 533/643/503 535/644/503 525/635/503 527/639/503
f 522/629/504 536/645/504 534/641/504 524/633/504
f 535/644/505 537/646/505 523/631/505 525/635/505
f 520/625/506 538/647/506 536/645/506 522/629/506
f 537/646/507 539/648/507 521/627/507 523/631/507
f 518/621/508 540/649/508 538/647/508 520/625/508
f 539/648/509 541/650/509 519/623/509 521/627/509
f 516/616/510 542/651/510 540/649/510 518/621/510
f 541/650/511 543/652/511 517/620/511 519/623/511
f 516/616/512 528/615/512 530/653/512 542/651/512
f 531/654/513 529/617/513 517/620/513 543/652/513
f 432/543/514 434/607/514 558/655/514 556/656/514
f 559/657/515 435/608/515 433/545/515 557/658/515
f 434/659/516 504/638/516 526/637/516 558/660/516
f 527/639/517 505/640/517 435/661/517 559/662/517
f 424/544/518 432/543/518 556/656/518 426/599/518
f 557/658/519 433/545/519 425/546/519 427/600/519
f 496/663/520 544/664/520 528/615/520 502/614/520
f 529/617/521 545/665/521 497/666/521 503/618/521
f 526/637/522 532/642/522 554/667/522 558/660/522
f 555/668/523 533/643/523 527/639/523 559/662/523
f 552/669/524 560/670/524 558/660/524 554/667/524
f 559/662/525 561/671/525 553/672/525 555/668/525
f 548/673/526 560/670/526 552/669/526 550/674/526
f 553/672/527 561/671/527 549/675/527 551/676/527
f 546/677/528 562/678/528 560/670/528 548/673/528
f 561/671/529 563/679/529 547/680/529 549/675/529
f 544/664/530 562/678/530 546/677/530 564/681/530
f 547/680/531 563/679/531 545/665/531 565/682/531
f 528/615/532 544/664/532 564/681/532 530/653/532
f 565/682/533 545/665/533 529/617/533 531/654/533
f 426/599/534 562/683/534 544/684/534 496/601/534
f 545/685/535 563/686/535 427/600/535 497/602/535
f 426/599/536 556/656/536 560/687/536 562/683/536
f 561/688/537 557/658/537 427/600/537 563/686/537
f 556/656/538 558/655/538 560/687/538
f 561/688/539 559/657/539 557/658/539
f 530/653/540 564/681/540 566/689/540 590/690/540
f 567/691/541 565/682/541 531/654/541 591/692/541
f 564/681/542 546/677/542 576/693/542 566/689/542
f 577/694/543 547/680/543 565/682/543 567/691/543
f 546/677/544 548/673/544 574/695/544 576/693/544
f 575/696/545 549/675/545 547/680/545 577/694/545
f 548/673/546 550/674/546 572/697/546 574/695/546
f 573/698/547 551/676/547 549/675/547 575/696/547
f 550/674/548 552/669/548 570/699/548 572/697/548
f 571/700/549 553/672/549 551/676/549 573/698/549
f 552/669/550 554/667/550 568/701/550 570/699/550
f 569/702/551 555/668/551 553/672/551 571/700/551
f 554/667/552 532/642/552 588/703/552 568/701/552
f 589/704/553 533/643/553 555/668/553 569/702/553
f 542/651/554 530/653/554 590/690/554 578/705/554
f 591/692/555 531/654/555 543/652/555 579/706/555
f 540/649/556 542/651/556 578/705/556 580/707/556
f 579/706/557 543/652/557 541/650/557 581/708/557
f 538/647/558 540/649/558 580/707/558 582/709/558
f 581/708/559 541/650/559 539/648/559 583/710/559
f 536/645/560 538/647/560 582/709/560 584/711/560
f 583/710/561 539/648/561 537/646/561 585/712/561
f 534/641/562 536/645/562 584/711/562 586/713/562
f 585/712/563 537/646/563 535/644/563 587/714/563
f 532/642/564 534/641/564 586/713/564 588/703/564
f 587/714/565 535/644/565 533/643/565 589/704/565
f 572/697/566 570/699/566 594/715/566 592/716/566
f 595/717/567 571/700/567 573/698/567 593/718/567
f 592/716/568 594/715/568 596/719/568 598/720/568
f 597/721/569 595/717/569 593/718/569 599/722/569
f 598/720/570 596/719/570 602/723/570 600/724/570
f 603/725/571 597/721/571 599/722/571 601/726/571
f 600/724/572 602/723/572 604/727/572 606/728/572
f 605/729/573 603/725/573 601/726/573 607/730/573
f 578/705/574 590/690/574 600/724/574 606/728/574
f 601/726/575 591/692/575 579/706/575 607/730/575
f 566/689/576 598/720/576 600/724/576 590/690/576
f 601/726/577 599/722/577 567/691/577 591/692/577
f 566/689/578 576/693/578 592/716/578 598/720/578
f 593/718/579 577/694/579 567/691/579 599/722/579
f 572/697/580 592/716/580 576/693/580 574/695/580
f 577/694/581 593/718/581 573/698/581 575/696/581
f 568/701/582 588/703/582 594/715/582 570/699/582
f 595/717/583 589/704/583 569/702/583 571/700/583
f 586/713/584 596/719/584 594/715/584 588/703/584
f 595/717/585 597/721/585 587/714/585 589/704/585
f 584/711/586 602/723/586 596/719/586 586/713/586
f 597/721/587 603/725/587 585/712/587 587/714/587
f 582/709/588 604/727/588 602/723/588 584/711/588
f 603/725/589 605/729/589 583/710/589 585/712/589
f 580/707/590 606/728/590 604/727/590 582/709/590
f 605/729/591 607/730/591 581/708/591 583/710/591
f 578/705/592 606/728/592 580/707/592
f 581/708/593 607/730/593 579/706/593
f 506/634/594 504/638/594 618/731/594 616/732/594
f 619/733/595 505/640/595 507/636/595 617/734/595
f 508/630/596 506/634/596 616/732/596 614/735/596
f 617/734/597 507/636/597 509/632/597 615/736/597
f 510/626/598 508/630/598 614/735/598 612/737/598
f 615/736/599 509/632/599 511/628/599 613/738/599
f 512/739/600 510/626/600 612/737/600 610/740/600
f 613/738/601 511/628/601 513/741/601 611/742/601
f 514/743/602 512/739/602 610/740/602 608/744/602
f 611/742/603 513/741/603 515/745/603 609/746/603
f 502/747/604 514/743/604 608/744/604 620/748/604
f 609/746/605 515/745/605 503/749/605 621/750/605
f 608/744/606 616/732/606 618/731/606 620/748/606
f 619/733/607 617/734/607 609/746/607 621/750/607
f 608/744/608 610/740/608 614/735/608 616/732/608
f 615/736/609 611/742/609 609/746/609 617/734/609
f 610/740/610 612/737/610 614/735/610
f 615/736/611 613/738/611 611/742/611
f 428/751/612 496/752/612 502/747/612 620/748/612
f 503/749/613 497/753/613 429/754/613 621/750/613
f 428/751/614 620/748/614 618/731/614 436/755/614
f 619/733/615 621/750/615 429/754/615 437/756/615
f 434/659/616 436/755/616 618/731/616 504/638/616
f 619/733/617 437/756/617 435/661/617 505/640/617
